<svg xmlns="http://www.w3.org/2000/svg" viewBox="0 -0.5 64 64" shape-rendering="crispEdges">
<metadata>Made with Pixels to Svg https://codepen.io/shshaw/pen/XbxvNj</metadata>
<path stroke="#000000" d="M0 0h4M8 0h1M10 0h2M14 0h5M21 0h1M23 0h1M27 0h1M33 0h1M35 0h3M39 0h1M43 0h2M47 0h2M52 0h2M57 0h2M60 0h1M63 0h1M0 1h1M2 1h4M9 1h2M12 1h2M15 1h1M17 1h1M20 1h1M22 1h1M25 1h1M31 1h3M35 1h1M38 1h1M40 1h1M43 1h4M48 1h4M53 1h2M56 1h1M58 1h3M2 2h1M4 2h1M9 2h2M12 2h2M15 2h1M17 2h2M24 2h1M28 2h6M35 2h1M39 2h1M42 2h1M44 2h2M48 2h1M50 2h3M54 2h2M57 2h1M0 3h1M3 3h1M5 3h1M7 3h1M9 3h1M11 3h2M14 3h3M18 3h2M21 3h2M24 3h7M32 3h1M36 3h1M39 3h1M41 3h2M45 3h1M49 3h1M51 3h1M54 3h4M59 3h1M2 4h3M7 4h2M13 4h1M16 4h1M19 4h1M25 4h3M29 4h1M31 4h5M38 4h1M40 4h1M43 4h10M54 4h1M57 4h1M59 4h1M63 4h1M2 5h1M4 5h1M6 5h2M9 5h1M11 5h2M16 5h1M19 5h3M23 5h1M25 5h1M28 5h2M31 5h2M35 5h2M39 5h1M41 5h1M43 5h2M46 5h1M51 5h2M54 5h1M59 5h3M63 5h1M0 6h1M2 6h1M4 6h1M8 6h1M14 6h1M16 6h1M18 6h1M20 6h3M24 6h1M27 6h1M30 6h1M33 6h3M38 6h3M43 6h1M46 6h2M49 6h1M51 6h2M57 6h1M61 6h2M7 7h2M11 7h1M15 7h2M18 7h3M22 7h2M25 7h1M27 7h1M30 7h3M34 7h2M41 7h4M46 7h1M49 7h3M53 7h4M61 7h1M63 7h1M0 8h4M9 8h2M12 8h1M15 8h1M19 8h6M26 8h1M29 8h2M32 8h1M38 8h1M42 8h1M45 8h3M51 8h5M58 8h1M61 8h2M0 9h1M2 9h1M8 9h4M13 9h2M18 9h2M23 9h4M28 9h1M30 9h1M32 9h2M36 9h4M41 9h1M43 9h6M50 9h1M53 9h2M56 9h2M62 9h2M1 10h1M3 10h1M9 10h2M12 10h7M20 10h2M25 10h2M28 10h2M32 10h2M38 10h1M40 10h1M45 10h1M48 10h1M51 10h2M54 10h2M58 10h1M61 10h1M63 10h1M0 11h2M5 11h2M8 11h1M12 11h1M15 11h1M17 11h1M19 11h4M26 11h1M29 11h2M32 11h2M39 11h1M42 11h1M44 11h2M48 11h1M51 11h2M54 11h4M59 11h2M63 11h1M1 12h3M5 12h2M8 12h4M13 12h2M16 12h3M20 12h3M25 12h2M34 12h3M41 12h2M45 12h1M47 12h1M49 12h3M54 12h2M57 12h1M63 12h1M1 13h2M4 13h3M8 13h2M11 13h1M15 13h3M19 13h5M25 13h1M28 13h1M31 13h1M38 13h1M40 13h1M44 13h2M48 13h1M50 13h1M54 13h2M58 13h5M1 14h1M3 14h1M9 14h2M12 14h1M15 14h2M18 14h3M23 14h3M30 14h1M33 14h1M35 14h6M43 14h1M45 14h1M48 14h4M54 14h3M60 14h2M63 14h1M0 15h2M3 15h1M5 15h1M9 15h5M15 15h1M17 15h1M21 15h1M23 15h1M28 15h1M31 15h7M39 15h3M44 15h2M50 15h1M52 15h1M55 15h1M57 15h2M60 15h1M0 16h1M3 16h2M6 16h2M12 16h2M15 16h1M18 16h2M22 16h1M24 16h1M27 16h1M29 16h1M31 16h2M34 16h2M37 16h2M40 16h1M46 16h1M48 16h2M51 16h3M57 16h4M1 17h1M3 17h1M5 17h1M12 17h2M16 17h1M20 17h2M23 17h6M30 17h5M36 17h2M40 17h3M44 17h14M59 17h5M1 18h3M6 18h1M10 18h2M15 18h1M17 18h1M19 18h3M25 18h2M28 18h1M30 18h3M34 18h2M37 18h4M42 18h1M46 18h1M48 18h3M52 18h2M55 18h1M58 18h2M61 18h2M1 19h1M3 19h1M5 19h1M7 19h6M15 19h1M17 19h2M26 19h2M29 19h3M33 19h2M37 19h1M41 19h2M45 19h1M48 19h1M54 19h1M56 19h1M58 19h1M61 19h1M63 19h1M2 20h5M9 20h2M12 20h4M17 20h1M22 20h1M24 20h4M29 20h1M32 20h2M35 20h3M40 20h2M43 20h1M45 20h2M48 20h2M51 20h1M53 20h1M55 20h2M58 20h1M61 20h1M0 21h1M5 21h3M9 21h2M16 21h2M21 21h1M23 21h2M27 21h1M29 21h2M32 21h2M35 21h2M39 21h2M43 21h4M50 21h2M55 21h1M58 21h1M60 21h1M0 22h1M3 22h1M5 22h2M8 22h2M11 22h1M13 22h1M15 22h2M18 22h6M25 22h4M32 22h3M37 22h1M41 22h2M44 22h2M48 22h2M51 22h3M55 22h1M59 22h1M61 22h2M4 23h1M6 23h1M8 23h2M11 23h2M16 23h1M18 23h3M22 23h4M33 23h1M36 23h1M41 23h6M48 23h1M52 23h2M56 23h3M0 24h3M5 24h3M10 24h1M15 24h1M19 24h1M21 24h2M24 24h3M29 24h1M31 24h1M34 24h1M37 24h2M41 24h1M44 24h2M47 24h5M53 24h2M56 24h2M59 24h2M0 25h3M6 25h1M9 25h1M11 25h1M13 25h1M16 25h2M20 25h2M26 25h5M35 25h3M39 25h1M41 25h1M45 25h2M48 25h1M50 25h1M52 25h2M56 25h2M62 25h2M1 26h1M3 26h2M9 26h4M21 26h2M27 26h3M31 26h2M35 26h1M38 26h1M40 26h1M42 26h2M50 26h6M58 26h1M60 26h2M63 26h1M0 27h1M2 27h1M4 27h1M8 27h1M11 27h1M13 27h1M20 27h1M22 27h1M25 27h4M30 27h1M32 27h4M40 27h1M43 27h1M46 27h1M48 27h1M50 27h2M54 27h2M63 27h1M1 28h2M5 28h1M7 28h5M13 28h1M15 28h1M17 28h1M19 28h4M24 28h3M28 28h1M32 28h2M36 28h1M38 28h3M43 28h1M45 28h2M48 28h1M51 28h3M55 28h2M63 28h1M0 29h5M6 29h7M14 29h1M16 29h1M22 29h1M24 29h2M30 29h1M35 29h1M39 29h1M41 29h2M49 29h2M52 29h1M55 29h1M59 29h1M61 29h2M0 30h2M5 30h1M7 30h2M10 30h3M15 30h2M18 30h1M24 30h1M26 30h2M29 30h3M35 30h1M37 30h5M44 30h2M47 30h2M50 30h2M53 30h1M57 30h3M62 30h1M2 31h1M4 31h3M8 31h1M10 31h1M12 31h5M18 31h2M21 31h2M26 31h3M30 31h1M34 31h1M36 31h6M45 31h5M53 31h1M57 31h1M59 31h2M63 31h1M5 32h2M8 32h2M12 32h1M15 32h1M18 32h2M22 32h3M26 32h2M29 32h1M32 32h1M34 32h2M41 32h1M45 32h6M59 32h1M63 32h1M1 33h2M5 33h1M7 33h2M10 33h1M13 33h1M15 33h3M19 33h2M23 33h2M28 33h2M32 33h1M36 33h7M45 33h1M47 33h4M52 33h2M55 33h1M57 33h2M60 33h4M0 34h6M14 34h2M17 34h1M20 34h2M23 34h1M27 34h3M32 34h4M37 34h4M42 34h2M45 34h5M52 34h3M56 34h2M60 34h1M62 34h1M0 35h1M3 35h2M7 35h1M10 35h2M16 35h1M18 35h6M26 35h1M28 35h1M30 35h1M34 35h2M37 35h8M46 35h4M51 35h1M53 35h1M55 35h1M57 35h3M61 35h1M63 35h1M0 36h1M2 36h2M5 36h1M7 36h2M11 36h8M20 36h2M24 36h1M26 36h6M33 36h5M39 36h1M41 36h1M45 36h2M48 36h2M51 36h2M56 36h1M58 36h1M60 36h2M63 36h1M4 37h2M7 37h2M10 37h3M14 37h4M19 37h2M23 37h2M27 37h3M31 37h1M34 37h2M37 37h1M40 37h1M43 37h2M47 37h1M49 37h1M53 37h2M58 37h1M63 37h1M0 38h3M5 38h2M11 38h3M18 38h1M20 38h2M24 38h1M28 38h2M31 38h4M43 38h1M45 38h1M47 38h4M53 38h3M58 38h1M61 38h1M3 39h1M6 39h1M9 39h1M15 39h2M19 39h1M21 39h2M24 39h3M28 39h3M32 39h1M35 39h2M39 39h1M41 39h1M46 39h2M52 39h5M60 39h1M62 39h2M2 40h3M6 40h1M12 40h6M20 40h1M22 40h2M26 40h1M28 40h3M32 40h2M36 40h1M39 40h1M46 40h5M52 40h2M58 40h4M0 41h1M3 41h5M9 41h2M12 41h2M19 41h1M22 41h5M29 41h7M37 41h2M41 41h1M43 41h1M50 41h4M55 41h7M63 41h1M0 42h1M2 42h1M4 42h1M6 42h1M8 42h1M10 42h2M14 42h2M17 42h5M23 42h1M26 42h2M29 42h1M32 42h1M35 42h2M39 42h1M46 42h1M49 42h1M51 42h1M54 42h1M57 42h1M59 42h2M63 42h1M1 43h1M5 43h2M10 43h4M19 43h3M25 43h2M29 43h1M32 43h1M36 43h2M39 43h2M42 43h1M47 43h2M51 43h1M53 43h1M55 43h2M61 43h1M0 44h1M4 44h7M12 44h4M17 44h3M21 44h1M30 44h2M35 44h1M37 44h4M46 44h3M51 44h1M53 44h1M55 44h1M59 44h2M63 44h1M0 45h1M2 45h1M5 45h1M8 45h3M18 45h1M21 45h2M24 45h1M26 45h4M31 45h1M35 45h2M39 45h1M42 45h5M49 45h6M56 45h1M58 45h2M62 45h2M0 46h1M3 46h4M8 46h1M10 46h1M12 46h1M14 46h1M16 46h1M19 46h1M21 46h2M24 46h1M28 46h3M32 46h1M34 46h1M36 46h2M39 46h4M45 46h4M52 46h3M57 46h2M62 46h1M1 47h1M3 47h1M6 47h1M9 47h2M13 47h2M19 47h1M24 47h3M30 47h1M34 47h1M38 47h2M41 47h3M47 47h1M51 47h1M56 47h2M62 47h1M1 48h2M10 48h1M14 48h1M17 48h7M26 48h2M29 48h3M39 48h2M44 48h2M47 48h3M51 48h3M56 48h1M60 48h2M2 49h1M6 49h1M8 49h1M11 49h2M14 49h1M16 49h3M22 49h1M24 49h1M27 49h1M31 49h4M36 49h1M41 49h2M44 49h1M46 49h1M49 49h1M51 49h5M59 49h4M1 50h3M7 50h2M11 50h1M13 50h1M17 50h1M19 50h4M24 50h1M27 50h4M35 50h1M43 50h1M46 50h2M49 50h4M55 50h2M58 50h1M60 50h2M0 51h1M8 51h6M15 51h2M22 51h1M24 51h2M27 51h1M30 51h3M35 51h2M38 51h2M42 51h3M46 51h2M50 51h2M54 51h1M57 51h1M60 51h2M63 51h1M0 52h3M4 52h1M7 52h3M11 52h1M13 52h1M16 52h4M22 52h1M26 52h3M30 52h2M33 52h1M35 52h2M41 52h1M44 52h2M47 52h1M50 52h2M53 52h1M56 52h1M59 52h1M62 52h1M0 53h1M4 53h1M8 53h1M11 53h1M13 53h1M15 53h2M18 53h1M22 53h1M24 53h2M27 53h3M31 53h1M33 53h2M36 53h2M40 53h6M47 53h2M51 53h3M56 53h1M58 53h1M1 54h1M3 54h2M6 54h1M8 54h2M14 54h1M17 54h1M19 54h3M23 54h5M29 54h2M32 54h3M36 54h2M40 54h2M44 54h2M47 54h1M49 54h3M54 54h9M0 55h1M3 55h2M6 55h1M10 55h1M12 55h1M15 55h1M19 55h1M26 55h2M29 55h2M33 55h1M35 55h2M38 55h3M42 55h1M44 55h1M51 55h1M55 55h5M62 55h1M1 56h1M3 56h1M5 56h1M7 56h1M13 56h3M19 56h2M23 56h1M25 56h2M29 56h1M31 56h1M34 56h1M36 56h5M42 56h5M49 56h4M54 56h5M62 56h2M2 57h1M5 57h1M9 57h4M14 57h3M18 57h1M27 57h2M31 57h1M33 57h1M37 57h3M42 57h1M45 57h2M49 57h1M52 57h1M57 57h1M61 57h3M2 58h1M5 58h2M9 58h1M11 58h1M13 58h1M15 58h3M19 58h1M23 58h1M27 58h1M31 58h1M33 58h6M42 58h1M44 58h1M49 58h1M51 58h1M53 58h2M60 58h4M1 59h1M4 59h1M6 59h2M9 59h1M12 59h1M15 59h2M18 59h3M23 59h1M25 59h1M27 59h1M29 59h2M35 59h1M38 59h2M41 59h3M47 59h3M52 59h2M57 59h2M60 59h1M62 59h1M0 60h1M3 60h2M6 60h2M10 60h1M13 60h1M17 60h1M24 60h2M27 60h2M30 60h1M32 60h3M36 60h1M38 60h1M44 60h2M48 60h1M52 60h1M54 60h1M56 60h3M60 60h3M0 61h2M3 61h1M5 61h2M8 61h5M14 61h2M18 61h1M22 61h1M25 61h7M34 61h1M36 61h1M46 61h3M55 61h5M62 61h1M0 62h1M2 62h3M6 62h1M10 62h1M13 62h1M16 62h1M22 62h1M32 62h1M34 62h1M38 62h2M42 62h1M45 62h1M47 62h1M49 62h4M54 62h2M58 62h2M2 63h2M5 63h1M7 63h1M9 63h1M11 63h1M15 63h5M22 63h1M25 63h1M28 63h3M36 63h5M45 63h1M48 63h1M53 63h2M56 63h1M59 63h1M61 63h1" />
<path stroke="#ffffff" d="M4 0h4M9 0h1M12 0h2M19 0h2M22 0h1M24 0h3M28 0h5M34 0h1M38 0h1M40 0h3M45 0h2M49 0h3M54 0h3M59 0h1M61 0h2M1 1h1M6 1h3M11 1h1M14 1h1M16 1h1M18 1h2M21 1h1M23 1h2M26 1h5M34 1h1M36 1h2M39 1h1M41 1h2M47 1h1M52 1h1M55 1h1M57 1h1M61 1h3M0 2h2M3 2h1M5 2h4M11 2h1M14 2h1M16 2h1M19 2h5M25 2h3M34 2h1M36 2h3M40 2h2M43 2h1M46 2h2M49 2h1M53 2h1M56 2h1M58 2h6M1 3h2M4 3h1M6 3h1M8 3h1M10 3h1M13 3h1M17 3h1M20 3h1M23 3h1M31 3h1M33 3h3M37 3h2M40 3h1M43 3h2M46 3h3M50 3h1M52 3h2M58 3h1M60 3h4M0 4h2M5 4h2M9 4h4M14 4h2M17 4h2M20 4h5M28 4h1M30 4h1M36 4h2M39 4h1M41 4h2M53 4h1M55 4h2M58 4h1M60 4h3M0 5h2M3 5h1M5 5h1M8 5h1M10 5h1M13 5h3M17 5h2M22 5h1M24 5h1M26 5h2M30 5h1M33 5h2M37 5h2M40 5h1M42 5h1M45 5h1M47 5h4M53 5h1M55 5h4M62 5h1M1 6h1M3 6h1M5 6h3M9 6h5M15 6h1M17 6h1M19 6h1M23 6h1M25 6h2M28 6h2M31 6h2M36 6h2M41 6h2M44 6h2M48 6h1M50 6h1M53 6h4M58 6h3M63 6h1M0 7h7M9 7h2M12 7h3M17 7h1M21 7h1M24 7h1M26 7h1M28 7h2M33 7h1M36 7h5M45 7h1M47 7h2M52 7h1M57 7h4M62 7h1M4 8h5M11 8h1M13 8h2M16 8h3M25 8h1M27 8h2M31 8h1M33 8h5M39 8h3M43 8h2M48 8h3M56 8h2M59 8h2M63 8h1M1 9h1M3 9h5M12 9h1M15 9h3M20 9h3M27 9h1M29 9h1M31 9h1M34 9h2M40 9h1M42 9h1M49 9h1M51 9h2M55 9h1M58 9h4M0 10h1M2 10h1M4 10h5M11 10h1M19 10h1M22 10h3M27 10h1M30 10h2M34 10h4M39 10h1M41 10h4M46 10h2M49 10h2M53 10h1M56 10h2M59 10h2M62 10h1M2 11h3M7 11h1M9 11h3M13 11h2M16 11h1M18 11h1M23 11h3M27 11h2M31 11h1M34 11h5M40 11h2M43 11h1M46 11h2M49 11h2M53 11h1M58 11h1M61 11h2M0 12h1M4 12h1M7 12h1M12 12h1M15 12h1M19 12h1M23 12h2M27 12h7M37 12h4M43 12h2M46 12h1M48 12h1M52 12h2M56 12h1M58 12h5M0 13h1M3 13h1M7 13h1M10 13h1M12 13h3M18 13h1M24 13h1M26 13h2M29 13h2M32 13h6M39 13h1M41 13h3M46 13h2M49 13h1M51 13h3M56 13h2M63 13h1M0 14h1M2 14h1M4 14h5M11 14h1M13 14h2M17 14h1M21 14h2M26 14h4M31 14h2M34 14h1M41 14h2M44 14h1M46 14h2M52 14h2M57 14h3M62 14h1M2 15h1M4 15h1M6 15h3M14 15h1M16 15h1M18 15h3M22 15h1M24 15h4M29 15h2M38 15h1M42 15h2M46 15h4M51 15h1M53 15h2M56 15h1M59 15h1M61 15h3M1 16h2M5 16h1M8 16h4M14 16h1M16 16h2M20 16h2M23 16h1M25 16h2M28 16h1M30 16h1M33 16h1M36 16h1M39 16h1M41 16h5M47 16h1M50 16h1M54 16h3M61 16h3M0 17h1M2 17h1M4 17h1M6 17h6M14 17h2M17 17h3M22 17h1M29 17h1M35 17h1M38 17h2M43 17h1M58 17h1M0 18h1M4 18h2M7 18h3M12 18h3M16 18h1M18 18h1M22 18h3M27 18h1M29 18h1M33 18h1M36 18h1M41 18h1M43 18h3M47 18h1M51 18h1M54 18h1M56 18h2M60 18h1M63 18h1M0 19h1M2 19h1M4 19h1M6 19h1M13 19h2M16 19h1M19 19h7M28 19h1M32 19h1M35 19h2M38 19h3M43 19h2M46 19h2M49 19h5M55 19h1M57 19h1M59 19h2M62 19h1M0 20h2M7 20h2M11 20h1M16 20h1M18 20h4M23 20h1M28 20h1M30 20h2M34 20h1M38 20h2M42 20h1M44 20h1M47 20h1M50 20h1M52 20h1M54 20h1M57 20h1M59 20h2M62 20h2M1 21h4M8 21h1M11 21h5M18 21h3M22 21h1M25 21h2M28 21h1M31 21h1M34 21h1M37 21h2M41 21h2M47 21h3M52 21h3M56 21h2M59 21h1M61 21h3M1 22h2M4 22h1M7 22h1M10 22h1M12 22h1M14 22h1M17 22h1M24 22h1M29 22h3M35 22h2M38 22h3M43 22h1M46 22h2M50 22h1M54 22h1M56 22h3M60 22h1M63 22h1M0 23h4M5 23h1M7 23h1M10 23h1M13 23h3M17 23h1M21 23h1M26 23h7M34 23h2M37 23h4M47 23h1M49 23h3M54 23h2M59 23h5M3 24h2M8 24h2M11 24h4M16 24h3M20 24h1M23 24h1M27 24h2M30 24h1M32 24h2M35 24h2M39 24h2M42 24h2M46 24h1M52 24h1M55 24h1M58 24h1M61 24h3M3 25h3M7 25h2M10 25h1M12 25h1M14 25h2M18 25h2M22 25h4M31 25h4M38 25h1M40 25h1M42 25h3M47 25h1M49 25h1M51 25h1M54 25h2M58 25h4M0 26h1M2 26h1M5 26h4M13 26h8M23 26h4M30 26h1M33 26h2M36 26h2M39 26h1M41 26h1M44 26h6M56 26h2M59 26h1M62 26h1M1 27h1M3 27h1M5 27h3M9 27h2M12 27h1M14 27h6M21 27h1M23 27h2M29 27h1M31 27h1M36 27h4M41 27h2M44 27h2M47 27h1M49 27h1M52 27h2M56 27h7M0 28h1M3 28h2M6 28h1M12 28h1M14 28h1M16 28h1M18 28h1M23 28h1M27 28h1M29 28h3M34 28h2M37 28h1M41 28h2M44 28h1M47 28h1M49 28h2M54 28h1M57 28h6M5 29h1M13 29h1M15 29h1M17 29h5M23 29h1M26 29h4M31 29h4M36 29h3M40 29h1M43 29h6M51 29h1M53 29h2M56 29h3M60 29h1M63 29h1M2 30h3M6 30h1M9 30h1M13 30h2M17 30h1M19 30h5M25 30h1M28 30h1M32 30h3M36 30h1M42 30h2M46 30h1M49 30h1M52 30h1M54 30h3M60 30h2M63 30h1M0 31h2M3 31h1M7 31h1M9 31h1M11 31h1M17 31h1M20 31h1M23 31h3M29 31h1M31 31h3M35 31h1M42 31h3M50 31h3M54 31h3M58 31h1M61 31h2M0 32h5M7 32h1M10 32h2M13 32h2M16 32h2M20 32h2M25 32h1M28 32h1M30 32h2M33 32h1M36 32h5M42 32h3M51 32h8M60 32h3M0 33h1M3 33h2M6 33h1M9 33h1M11 33h2M14 33h1M18 33h1M21 33h2M25 33h3M30 33h2M33 33h3M43 33h2M46 33h1M51 33h1M54 33h1M56 33h1M59 33h1M6 34h8M16 34h1M18 34h2M22 34h1M24 34h3M30 34h2M36 34h1M41 34h1M44 34h1M50 34h2M55 34h1M58 34h2M61 34h1M63 34h1M1 35h2M5 35h2M8 35h2M12 35h4M17 35h1M24 35h2M27 35h1M29 35h1M31 35h3M36 35h1M45 35h1M50 35h1M52 35h1M54 35h1M56 35h1M60 35h1M62 35h1M1 36h1M4 36h1M6 36h1M9 36h2M19 36h1M22 36h2M25 36h1M32 36h1M38 36h1M40 36h1M42 36h3M47 36h1M50 36h1M53 36h3M57 36h1M59 36h1M62 36h1M0 37h4M6 37h1M9 37h1M13 37h1M18 37h1M21 37h2M25 37h2M30 37h1M32 37h2M36 37h1M38 37h2M41 37h2M45 37h2M48 37h1M50 37h3M55 37h3M59 37h4M3 38h2M7 38h4M14 38h4M19 38h1M22 38h2M25 38h3M30 38h1M35 38h8M44 38h1M46 38h1M51 38h2M56 38h2M59 38h2M62 38h2M0 39h3M4 39h2M7 39h2M10 39h5M17 39h2M20 39h1M23 39h1M27 39h1M31 39h1M33 39h2M37 39h2M40 39h1M42 39h4M48 39h4M57 39h3M61 39h1M0 40h2M5 40h1M7 40h5M18 40h2M21 40h1M24 40h2M27 40h1M31 40h1M34 40h2M37 40h2M40 40h6M51 40h1M54 40h4M62 40h2M1 41h2M8 41h1M11 41h1M14 41h5M20 41h2M27 41h2M36 41h1M39 41h2M42 41h1M44 41h6M54 41h1M62 41h1M1 42h1M3 42h1M5 42h1M7 42h1M9 42h1M12 42h2M16 42h1M22 42h1M24 42h2M28 42h1M30 42h2M33 42h2M37 42h2M40 42h6M47 42h2M50 42h1M52 42h2M55 42h2M58 42h1M61 42h2M0 43h1M2 43h3M7 43h3M14 43h5M22 43h3M27 43h2M30 43h2M33 43h3M38 43h1M41 43h1M43 43h4M49 43h2M52 43h1M54 43h1M57 43h4M62 43h2M1 44h3M11 44h1M16 44h1M20 44h1M22 44h8M32 44h3M36 44h1M41 44h5M49 44h2M52 44h1M54 44h1M56 44h3M61 44h2M1 45h1M3 45h2M6 45h2M11 45h7M19 45h2M23 45h1M25 45h1M30 45h1M32 45h3M37 45h2M40 45h2M47 45h2M55 45h1M57 45h1M60 45h2M1 46h2M7 46h1M9 46h1M11 46h1M13 46h1M15 46h1M17 46h2M20 46h1M23 46h1M25 46h3M31 46h1M33 46h1M35 46h1M38 46h1M43 46h2M49 46h3M55 46h2M59 46h3M63 46h1M0 47h1M2 47h1M4 47h2M7 47h2M11 47h2M15 47h4M20 47h4M27 47h3M31 47h3M35 47h3M40 47h1M44 47h3M48 47h3M52 47h4M58 47h4M63 47h1M0 48h1M3 48h7M11 48h3M15 48h2M24 48h2M28 48h1M32 48h7M41 48h3M46 48h1M50 48h1M54 48h2M57 48h3M62 48h2M0 49h2M3 49h3M7 49h1M9 49h2M13 49h1M15 49h1M19 49h3M23 49h1M25 49h2M28 49h3M35 49h1M37 49h4M43 49h1M45 49h1M47 49h2M50 49h1M56 49h3M63 49h1M0 50h1M4 50h3M9 50h2M12 50h1M14 50h3M18 50h1M23 50h1M25 50h2M31 50h4M36 50h7M44 50h2M48 50h1M53 50h2M57 50h1M59 50h1M62 50h2M1 51h7M14 51h1M17 51h5M23 51h1M26 51h1M28 51h2M33 51h2M37 51h1M40 51h2M45 51h1M48 51h2M52 51h2M55 51h2M58 51h2M62 51h1M3 52h1M5 52h2M10 52h1M12 52h1M14 52h2M20 52h2M23 52h3M29 52h1M32 52h1M34 52h1M37 52h4M42 52h2M46 52h1M48 52h2M52 52h1M54 52h2M57 52h2M60 52h2M63 52h1M1 53h3M5 53h3M9 53h2M12 53h1M14 53h1M17 53h1M19 53h3M23 53h1M26 53h1M30 53h1M32 53h1M35 53h1M38 53h2M46 53h1M49 53h2M54 53h2M57 53h1M59 53h5M0 54h1M2 54h1M5 54h1M7 54h1M10 54h4M15 54h2M18 54h1M22 54h1M28 54h1M31 54h1M35 54h1M38 54h2M42 54h2M46 54h1M48 54h1M52 54h2M63 54h1M1 55h2M5 55h1M7 55h3M11 55h1M13 55h2M16 55h3M20 55h6M28 55h1M31 55h2M34 55h1M37 55h1M41 55h1M43 55h1M45 55h6M52 55h3M60 55h2M63 55h1M0 56h1M2 56h1M4 56h1M6 56h1M8 56h5M16 56h3M21 56h2M24 56h1M27 56h2M30 56h1M32 56h2M35 56h1M41 56h1M47 56h2M53 56h1M59 56h3M0 57h2M3 57h2M6 57h3M13 57h1M17 57h1M19 57h8M29 57h2M32 57h1M34 57h3M40 57h2M43 57h2M47 57h2M50 57h2M53 57h4M58 57h3M0 58h2M3 58h2M7 58h2M10 58h1M12 58h1M14 58h1M18 58h1M20 58h3M24 58h3M28 58h3M32 58h1M39 58h3M43 58h1M45 58h4M50 58h1M52 58h1M55 58h5M0 59h1M2 59h2M5 59h1M8 59h1M10 59h2M13 59h2M17 59h1M21 59h2M24 59h1M26 59h1M28 59h1M31 59h4M36 59h2M40 59h1M44 59h3M50 59h2M54 59h3M59 59h1M61 59h1M63 59h1M1 60h2M5 60h1M8 60h2M11 60h2M14 60h3M18 60h6M26 60h1M29 60h1M31 60h1M35 60h1M37 60h1M39 60h5M46 60h2M49 60h3M53 60h1M55 60h1M59 60h1M63 60h1M2 61h1M4 61h1M7 61h1M13 61h1M16 61h2M19 61h3M23 61h2M32 61h2M35 61h1M37 61h9M49 61h6M60 61h2M63 61h1M1 62h1M5 62h1M7 62h3M11 62h2M14 62h2M17 62h5M23 62h9M33 62h1M35 62h3M40 62h2M43 62h2M46 62h1M48 62h1M53 62h1M56 62h2M60 62h4M0 63h2M4 63h1M6 63h1M8 63h1M10 63h1M12 63h3M20 63h2M23 63h2M26 63h2M31 63h5M41 63h4M46 63h2M49 63h4M55 63h1M57 63h2M60 63h1M62 63h2" />
</svg>