<svg xmlns="http://www.w3.org/2000/svg" viewBox="0 -0.5 64 64" shape-rendering="crispEdges">
<metadata>Made with Pixels to Svg https://codepen.io/shshaw/pen/XbxvNj</metadata>
<path stroke="#000000" d="M0 0h64M0 1h2M62 1h2M0 2h1M2 2h1M61 2h1M63 2h1M0 3h1M3 3h1M60 3h1M63 3h1M0 4h1M4 4h56M63 4h1M0 5h1M4 5h2M58 5h2M63 5h1M0 6h1M4 6h1M6 6h1M57 6h1M59 6h1M63 6h1M0 7h1M4 7h1M7 7h1M56 7h1M59 7h1M63 7h1M0 8h1M4 8h1M8 8h1M55 8h1M59 8h1M63 8h1M0 9h1M4 9h1M9 9h1M54 9h1M59 9h1M63 9h1M0 10h1M4 10h1M10 10h1M53 10h1M59 10h1M63 10h1M0 11h1M4 11h1M11 11h1M52 11h1M59 11h1M63 11h1M0 12h1M4 12h1M12 12h1M51 12h1M59 12h1M63 12h1M0 13h1M4 13h1M13 13h1M50 13h1M59 13h1M63 13h1M0 14h1M4 14h1M14 14h1M49 14h1M59 14h1M63 14h1M0 15h1M4 15h1M15 15h1M48 15h1M59 15h1M63 15h1M0 16h1M4 16h1M16 16h1M47 16h1M59 16h1M63 16h1M0 17h1M4 17h1M17 17h1M46 17h1M59 17h1M63 17h1M0 18h1M4 18h1M18 18h1M45 18h1M59 18h1M63 18h1M0 19h1M4 19h1M19 19h1M44 19h1M59 19h1M63 19h1M0 20h1M4 20h1M20 20h1M43 20h1M59 20h1M63 20h1M0 21h1M4 21h1M21 21h1M42 21h1M59 21h1M63 21h1M0 22h1M4 22h1M22 22h1M41 22h1M59 22h1M63 22h1M0 23h1M4 23h1M23 23h1M40 23h1M59 23h1M63 23h1M0 24h1M4 24h1M24 24h1M39 24h1M59 24h1M63 24h1M0 25h1M4 25h1M25 25h1M38 25h1M59 25h1M63 25h1M0 26h1M4 26h1M26 26h1M37 26h1M59 26h1M63 26h1M0 27h1M4 27h1M27 27h1M36 27h1M59 27h1M63 27h1M0 28h1M4 28h1M28 28h1M35 28h1M59 28h1M63 28h1M0 29h1M4 29h1M21 29h6M29 29h1M34 29h1M59 29h1M63 29h1M0 30h1M4 30h1M21 30h1M26 30h1M30 30h1M33 30h1M59 30h1M63 30h1M0 31h1M4 31h1M21 31h1M23 31h2M26 31h1M31 31h2M59 31h1M63 31h1M0 32h1M4 32h1M21 32h1M23 32h2M26 32h1M31 32h2M59 32h1M63 32h1M0 33h1M4 33h1M21 33h1M26 33h1M30 33h1M33 33h1M59 33h1M63 33h1M0 34h1M4 34h1M21 34h6M29 34h1M34 34h1M59 34h1M63 34h1M0 35h1M4 35h1M28 35h1M35 35h1M59 35h1M63 35h1M0 36h1M4 36h1M27 36h1M36 36h1M59 36h1M63 36h1M0 37h1M4 37h1M26 37h1M37 37h1M59 37h1M63 37h1M0 38h1M4 38h1M25 38h1M38 38h1M59 38h1M63 38h1M0 39h1M4 39h1M24 39h1M31 39h2M39 39h1M59 39h1M63 39h1M0 40h1M4 40h1M23 40h1M31 40h2M40 40h1M59 40h1M63 40h1M0 41h1M4 41h1M22 41h1M41 41h1M59 41h1M63 41h1M0 42h1M4 42h1M21 42h1M42 42h1M59 42h1M63 42h1M0 43h1M4 43h1M20 43h1M43 43h1M59 43h1M63 43h1M0 44h1M4 44h1M19 44h1M44 44h1M59 44h1M63 44h1M0 45h1M4 45h1M18 45h1M45 45h1M59 45h1M63 45h1M0 46h1M4 46h1M17 46h1M46 46h1M59 46h1M63 46h1M0 47h1M4 47h1M16 47h1M47 47h1M59 47h1M63 47h1M0 48h1M4 48h1M15 48h1M48 48h1M59 48h1M63 48h1M0 49h1M4 49h1M14 49h1M49 49h1M59 49h1M63 49h1M0 50h1M4 50h1M13 50h1M50 50h1M59 50h1M63 50h1M0 51h1M4 51h1M12 51h1M51 51h1M59 51h1M63 51h1M0 52h1M4 52h1M11 52h1M52 52h1M59 52h1M63 52h1M0 53h1M4 53h1M10 53h1M53 53h1M59 53h1M63 53h1M0 54h1M4 54h1M9 54h1M54 54h1M59 54h1M63 54h1M0 55h1M4 55h1M8 55h1M55 55h1M59 55h1M63 55h1M0 56h1M4 56h1M7 56h1M56 56h1M59 56h1M63 56h1M0 57h1M4 57h1M6 57h1M57 57h1M59 57h1M63 57h1M0 58h1M4 58h2M58 58h2M63 58h1M0 59h1M4 59h56M63 59h1M0 60h1M3 60h1M60 60h1M63 60h1M0 61h1M2 61h1M61 61h1M63 61h1M0 62h2M62 62h2M0 63h64" />
<path stroke="#ffffff" d="M2 1h60M1 2h1M3 2h58M62 2h1M1 3h2M4 3h56M61 3h2M1 4h3M60 4h3M1 5h3M6 5h52M60 5h3M1 6h3M5 6h1M7 6h50M58 6h1M60 6h3M1 7h3M5 7h2M8 7h48M57 7h2M60 7h3M1 8h3M5 8h3M9 8h46M56 8h3M60 8h3M1 9h3M5 9h4M10 9h44M55 9h4M60 9h3M1 10h3M5 10h5M11 10h42M54 10h5M60 10h3M1 11h3M5 11h6M12 11h40M53 11h6M60 11h3M1 12h3M5 12h7M13 12h38M52 12h7M60 12h3M1 13h3M5 13h8M14 13h36M51 13h8M60 13h3M1 14h3M5 14h9M15 14h34M50 14h9M60 14h3M1 15h3M5 15h10M16 15h32M49 15h10M60 15h3M1 16h3M5 16h11M17 16h30M48 16h11M60 16h3M1 17h3M5 17h12M18 17h28M47 17h12M60 17h3M1 18h3M5 18h13M19 18h26M46 18h13M60 18h3M1 19h3M5 19h14M20 19h24M45 19h14M60 19h3M1 20h3M5 20h15M21 20h22M44 20h15M60 20h3M1 21h3M5 21h16M22 21h20M43 21h16M60 21h3M1 22h3M5 22h17M23 22h18M42 22h17M60 22h3M1 23h3M5 23h18M24 23h16M41 23h18M60 23h3M1 24h3M5 24h19M25 24h14M40 24h19M60 24h3M1 25h3M5 25h20M26 25h12M39 25h20M60 25h3M1 26h3M5 26h21M27 26h10M38 26h21M60 26h3M1 27h3M5 27h22M28 27h8M37 27h22M60 27h3M1 28h3M5 28h23M29 28h6M36 28h23M60 28h3M1 29h3M5 29h16M27 29h2M30 29h4M35 29h24M60 29h3M1 30h3M5 30h16M22 30h4M27 30h3M31 30h2M34 30h25M60 30h3M1 31h3M5 31h16M22 31h1M25 31h1M27 31h4M33 31h26M60 31h3M1 32h3M5 32h16M22 32h1M25 32h1M27 32h4M33 32h26M60 32h3M1 33h3M5 33h16M22 33h4M27 33h3M31 33h2M34 33h25M60 33h3M1 34h3M5 34h16M27 34h2M30 34h4M35 34h24M60 34h3M1 35h3M5 35h23M29 35h6M36 35h23M60 35h3M1 36h3M5 36h22M28 36h8M37 36h22M60 36h3M1 37h3M5 37h21M27 37h10M38 37h21M60 37h3M1 38h3M5 38h20M26 38h12M39 38h20M60 38h3M1 39h3M5 39h19M25 39h6M33 39h6M40 39h19M60 39h3M1 40h3M5 40h18M24 40h7M33 40h7M41 40h18M60 40h3M1 41h3M5 41h17M23 41h18M42 41h17M60 41h3M1 42h3M5 42h16M22 42h20M43 42h16M60 42h3M1 43h3M5 43h15M21 43h22M44 43h15M60 43h3M1 44h3M5 44h14M20 44h24M45 44h14M60 44h3M1 45h3M5 45h13M19 45h26M46 45h13M60 45h3M1 46h3M5 46h12M18 46h28M47 46h12M60 46h3M1 47h3M5 47h11M17 47h30M48 47h11M60 47h3M1 48h3M5 48h10M16 48h32M49 48h10M60 48h3M1 49h3M5 49h9M15 49h34M50 49h9M60 49h3M1 50h3M5 50h8M14 50h36M51 50h8M60 50h3M1 51h3M5 51h7M13 51h38M52 51h7M60 51h3M1 52h3M5 52h6M12 52h40M53 52h6M60 52h3M1 53h3M5 53h5M11 53h42M54 53h5M60 53h3M1 54h3M5 54h4M10 54h44M55 54h4M60 54h3M1 55h3M5 55h3M9 55h46M56 55h3M60 55h3M1 56h3M5 56h2M8 56h48M57 56h2M60 56h3M1 57h3M5 57h1M7 57h50M58 57h1M60 57h3M1 58h3M6 58h52M60 58h3M1 59h3M60 59h3M1 60h2M4 60h56M61 60h2M1 61h1M3 61h58M62 61h1M2 62h60" />
</svg>