<?xml version="1.0" encoding="UTF-8" standalone="no"?>
<svg
   xmlns:dc="http://purl.org/dc/elements/1.1/"
   xmlns:cc="http://creativecommons.org/ns#"
   xmlns:rdf="http://www.w3.org/1999/02/22-rdf-syntax-ns#"
   xmlns:svg="http://www.w3.org/2000/svg"
   xmlns="http://www.w3.org/2000/svg"
   xmlns:sodipodi="http://sodipodi.sourceforge.net/DTD/sodipodi-0.dtd"
   xmlns:inkscape="http://www.inkscape.org/namespaces/inkscape"
   width="210mm"
   height="297mm"
   viewBox="0 0 210 297"
   version="1.1"
   id="svg8"
   inkscape:version="1.0.2 (e86c8708, 2021-01-15)"
   sodipodi:docname="patterns.svg">
  <defs
     id="defs2" />
  <sodipodi:namedview
     id="base"
     pagecolor="#ffffff"
     bordercolor="#666666"
     borderopacity="1.0"
     inkscape:pageopacity="0.0"
     inkscape:pageshadow="2"
     inkscape:zoom="1.0016939"
     inkscape:cx="368.33591"
     inkscape:cy="478.59611"
     inkscape:document-units="mm"
     inkscape:current-layer="layer2"
     inkscape:document-rotation="0"
     showgrid="false"
     inkscape:window-width="1920"
     inkscape:window-height="1035"
     inkscape:window-x="0"
     inkscape:window-y="24"
     inkscape:window-maximized="0" />
  <metadata
     id="metadata5">
    <rdf:RDF>
      <cc:Work
         rdf:about="">
        <dc:format>image/svg+xml</dc:format>
        <dc:type
           rdf:resource="http://purl.org/dc/dcmitype/StillImage" />
        <dc:title></dc:title>
      </cc:Work>
    </rdf:RDF>
  </metadata>
  <g
     inkscape:label="Frame"
     inkscape:groupmode="layer"
     id="layer1"
     style="display:inline">
    <rect
       style="fill:none;stroke:#000000;stroke-width:5;stroke-linecap:round;stroke-linejoin:miter;stroke-miterlimit:4;stroke-dasharray:none;stroke-opacity:1"
       id="rect12"
       width="150"
       height="150"
       x="30"
       y="73.5" />
  </g>
  <g
     inkscape:groupmode="layer"
     id="layer3"
     inkscape:label="Code"
     style="display:none">
    <g
       style="display:inline;shape-rendering:crispEdges"
       id="g967"
       transform="matrix(2.1495302,0,0,2.1495302,36.215034,80.789799)">
      <path
         stroke="#000000"
         d="m 0,0 h 4 m 4,0 h 1 m 1,0 h 2 m 2,0 h 5 m 2,0 h 1 m 1,0 h 1 m 3,0 h 1 m 5,0 h 1 m 1,0 h 3 m 1,0 h 1 m 3,0 h 2 m 2,0 h 2 m 3,0 h 2 m 3,0 h 2 m 1,0 h 1 m 2,0 h 1 M 0,1 h 1 m 1,0 h 4 m 3,0 h 2 m 1,0 h 2 m 1,0 h 1 m 1,0 h 1 m 2,0 h 1 m 1,0 h 1 m 2,0 h 1 m 5,0 h 3 m 1,0 h 1 m 2,0 h 1 m 1,0 h 1 m 2,0 h 4 m 1,0 h 4 m 1,0 h 2 m 1,0 h 1 m 1,0 h 3 M 2,2 h 1 m 1,0 h 1 m 4,0 h 2 m 1,0 h 2 m 1,0 h 1 m 1,0 h 2 m 5,0 h 1 m 3,0 h 6 m 1,0 h 1 m 3,0 h 1 m 2,0 h 1 m 1,0 h 2 m 2,0 h 1 m 1,0 h 3 m 1,0 h 2 m 1,0 h 1 M 0,3 h 1 m 2,0 h 1 m 1,0 h 1 m 1,0 h 1 m 1,0 h 1 m 1,0 h 2 m 1,0 h 3 m 1,0 h 2 m 1,0 h 2 m 1,0 h 7 m 1,0 h 1 m 3,0 h 1 m 2,0 h 1 m 1,0 h 2 m 2,0 h 1 m 3,0 h 1 m 1,0 h 1 m 2,0 h 4 m 1,0 h 1 M 2,4 h 3 m 2,0 h 2 m 4,0 h 1 m 2,0 h 1 m 2,0 h 1 m 5,0 h 3 m 1,0 h 1 m 1,0 h 5 m 2,0 h 1 m 1,0 h 1 m 2,0 h 10 m 1,0 h 1 m 2,0 h 1 m 1,0 h 1 m 3,0 h 1 M 2,5 h 1 m 1,0 h 1 m 1,0 h 2 m 1,0 h 1 m 1,0 h 2 m 3,0 h 1 m 2,0 h 3 m 1,0 h 1 m 1,0 h 1 m 2,0 h 2 m 1,0 h 2 m 2,0 h 2 m 2,0 h 1 m 1,0 h 1 m 1,0 h 2 m 1,0 h 1 m 4,0 h 2 m 1,0 h 1 m 4,0 h 3 m 1,0 h 1 M 0,6 h 1 m 1,0 h 1 m 1,0 h 1 m 3,0 h 1 m 5,0 h 1 m 1,0 h 1 m 1,0 h 1 m 1,0 h 3 m 1,0 h 1 m 2,0 h 1 m 2,0 h 1 m 2,0 h 3 m 2,0 h 3 m 2,0 h 1 m 2,0 h 2 m 1,0 h 1 m 1,0 h 2 m 4,0 h 1 m 3,0 h 2 M 7,7 h 2 m 2,0 h 1 m 3,0 h 2 m 1,0 h 3 m 1,0 h 2 m 1,0 h 1 m 1,0 h 1 m 2,0 h 3 m 1,0 h 2 m 5,0 h 4 m 1,0 h 1 m 2,0 h 3 m 1,0 h 4 m 4,0 h 1 m 1,0 h 1 M 0,8 h 4 m 5,0 h 2 m 1,0 h 1 m 2,0 h 1 m 3,0 h 6 m 1,0 h 1 m 2,0 h 2 m 1,0 h 1 m 5,0 h 1 m 3,0 h 1 m 2,0 h 3 m 3,0 h 5 m 2,0 h 1 m 2,0 h 2 M 0,9 h 1 m 1,0 h 1 m 5,0 h 4 m 1,0 h 2 m 3,0 h 2 m 3,0 h 4 m 1,0 h 1 m 1,0 h 1 m 1,0 h 2 m 2,0 h 4 m 1,0 h 1 m 1,0 h 6 m 1,0 h 1 m 2,0 h 2 m 1,0 h 2 m 4,0 h 2 M 1,10 h 1 m 1,0 h 1 m 5,0 h 2 m 1,0 h 7 m 1,0 h 2 m 3,0 h 2 m 1,0 h 2 m 2,0 h 2 m 4,0 h 1 m 1,0 h 1 m 4,0 h 1 m 2,0 h 1 m 2,0 h 2 m 1,0 h 2 m 2,0 h 1 m 2,0 h 1 m 1,0 h 1 M 0,11 h 2 m 3,0 h 2 m 1,0 h 1 m 3,0 h 1 m 2,0 h 1 m 1,0 h 1 m 1,0 h 4 m 3,0 h 1 m 2,0 h 2 m 1,0 h 2 m 5,0 h 1 m 2,0 h 1 m 1,0 h 2 m 2,0 h 1 m 2,0 h 2 m 1,0 h 4 m 1,0 h 2 m 2,0 h 1 M 1,12 h 3 m 1,0 h 2 m 1,0 h 4 m 1,0 h 2 m 1,0 h 3 m 1,0 h 3 m 2,0 h 2 m 7,0 h 3 m 4,0 h 2 m 2,0 h 1 m 1,0 h 1 m 1,0 h 3 m 2,0 h 2 m 1,0 h 1 m 5,0 h 1 M 1,13 h 2 m 1,0 h 3 m 1,0 h 2 m 1,0 h 1 m 3,0 h 3 m 1,0 h 5 m 1,0 h 1 m 2,0 h 1 m 2,0 h 1 m 6,0 h 1 m 1,0 h 1 m 3,0 h 2 m 2,0 h 1 m 1,0 h 1 m 3,0 h 2 m 2,0 h 5 M 1,14 h 1 m 1,0 h 1 m 5,0 h 2 m 1,0 h 1 m 2,0 h 2 m 1,0 h 3 m 2,0 h 3 m 4,0 h 1 m 2,0 h 1 m 1,0 h 6 m 2,0 h 1 m 1,0 h 1 m 2,0 h 4 m 2,0 h 3 m 3,0 h 2 m 1,0 h 1 M 0,15 h 2 m 1,0 h 1 m 1,0 h 1 m 3,0 h 5 m 1,0 h 1 m 1,0 h 1 m 3,0 h 1 m 1,0 h 1 m 4,0 h 1 m 2,0 h 7 m 1,0 h 3 m 2,0 h 2 m 4,0 h 1 m 1,0 h 1 m 2,0 h 1 m 1,0 h 2 m 1,0 h 1 M 0,16 h 1 m 2,0 h 2 m 1,0 h 2 m 4,0 h 2 m 1,0 h 1 m 2,0 h 2 m 2,0 h 1 m 1,0 h 1 m 2,0 h 1 m 1,0 h 1 m 1,0 h 2 m 1,0 h 2 m 1,0 h 2 m 1,0 h 1 m 5,0 h 1 m 1,0 h 2 m 1,0 h 3 m 3,0 h 4 M 1,17 h 1 m 1,0 h 1 m 1,0 h 1 m 6,0 h 2 m 2,0 h 1 m 3,0 h 2 m 1,0 h 6 m 1,0 h 5 m 1,0 h 2 m 2,0 h 3 m 1,0 h 14 m 1,0 h 5 M 1,18 h 3 m 2,0 h 1 m 3,0 h 2 m 3,0 h 1 m 1,0 h 1 m 1,0 h 3 m 3,0 h 2 m 1,0 h 1 m 1,0 h 3 m 1,0 h 2 m 1,0 h 4 m 1,0 h 1 m 3,0 h 1 m 1,0 h 3 m 1,0 h 2 m 1,0 h 1 m 2,0 h 2 m 1,0 h 2 M 1,19 h 1 m 1,0 h 1 m 1,0 h 1 m 1,0 h 6 m 2,0 h 1 m 1,0 h 2 m 7,0 h 2 m 1,0 h 3 m 1,0 h 2 m 2,0 h 1 m 3,0 h 2 m 2,0 h 1 m 2,0 h 1 m 5,0 h 1 m 1,0 h 1 m 1,0 h 1 m 2,0 h 1 m 1,0 h 1 M 2,20 h 5 m 2,0 h 2 m 1,0 h 4 m 1,0 h 1 m 4,0 h 1 m 1,0 h 4 m 1,0 h 1 m 2,0 h 2 m 1,0 h 3 m 2,0 h 2 m 1,0 h 1 m 1,0 h 2 m 1,0 h 2 m 1,0 h 1 m 1,0 h 1 m 1,0 h 2 m 1,0 h 1 m 2,0 h 1 M 0,21 h 1 m 4,0 h 3 m 1,0 h 2 m 5,0 h 2 m 3,0 h 1 m 1,0 h 2 m 2,0 h 1 m 1,0 h 2 m 1,0 h 2 m 1,0 h 2 m 2,0 h 2 m 2,0 h 4 m 3,0 h 2 m 3,0 h 1 m 2,0 h 1 m 1,0 h 1 M 0,22 h 1 m 2,0 h 1 m 1,0 h 2 m 1,0 h 2 m 1,0 h 1 m 1,0 h 1 m 1,0 h 2 m 1,0 h 6 m 1,0 h 4 m 3,0 h 3 m 2,0 h 1 m 3,0 h 2 m 1,0 h 2 m 2,0 h 2 m 1,0 h 3 m 1,0 h 1 m 3,0 h 1 m 1,0 h 2 M 4,23 h 1 m 1,0 h 1 m 1,0 h 2 m 1,0 h 2 m 3,0 h 1 m 1,0 h 3 m 1,0 h 4 m 7,0 h 1 m 2,0 h 1 m 4,0 h 6 m 1,0 h 1 m 3,0 h 2 m 2,0 h 3 M 0,24 h 3 m 2,0 h 3 m 2,0 h 1 m 4,0 h 1 m 3,0 h 1 m 1,0 h 2 m 1,0 h 3 m 2,0 h 1 m 1,0 h 1 m 2,0 h 1 m 2,0 h 2 m 2,0 h 1 m 2,0 h 2 m 1,0 h 5 m 1,0 h 2 m 1,0 h 2 m 1,0 h 2 M 0,25 h 3 m 3,0 h 1 m 2,0 h 1 m 1,0 h 1 m 1,0 h 1 m 2,0 h 2 m 2,0 h 2 m 4,0 h 5 m 4,0 h 3 m 1,0 h 1 m 1,0 h 1 m 3,0 h 2 m 1,0 h 1 m 1,0 h 1 m 1,0 h 2 m 2,0 h 2 m 4,0 h 2 M 1,26 h 1 m 1,0 h 2 m 4,0 h 4 m 8,0 h 2 m 4,0 h 3 m 1,0 h 2 m 2,0 h 1 m 2,0 h 1 m 1,0 h 1 m 1,0 h 2 m 6,0 h 6 m 2,0 h 1 m 1,0 h 2 m 1,0 h 1 M 0,27 h 1 m 1,0 h 1 m 1,0 h 1 m 3,0 h 1 m 2,0 h 1 m 1,0 h 1 m 6,0 h 1 m 1,0 h 1 m 2,0 h 4 m 1,0 h 1 m 1,0 h 4 m 4,0 h 1 m 2,0 h 1 m 2,0 h 1 m 1,0 h 1 m 1,0 h 2 m 2,0 h 2 m 7,0 h 1 M 1,28 h 2 m 2,0 h 1 m 1,0 h 5 m 1,0 h 1 m 1,0 h 1 m 1,0 h 1 m 1,0 h 4 m 1,0 h 3 m 1,0 h 1 m 3,0 h 2 m 2,0 h 1 m 1,0 h 3 m 2,0 h 1 m 1,0 h 2 m 1,0 h 1 m 2,0 h 3 m 1,0 h 2 m 6,0 h 1 M 0,29 h 5 m 1,0 h 7 m 1,0 h 1 m 1,0 h 1 m 5,0 h 1 m 1,0 h 2 m 4,0 h 1 m 4,0 h 1 m 3,0 h 1 m 1,0 h 2 m 6,0 h 2 m 1,0 h 1 m 2,0 h 1 m 3,0 h 1 m 1,0 h 2 M 0,30 h 2 m 3,0 h 1 m 1,0 h 2 m 1,0 h 3 m 2,0 h 2 m 1,0 h 1 m 5,0 h 1 m 1,0 h 2 m 1,0 h 3 m 3,0 h 1 m 1,0 h 5 m 2,0 h 2 m 1,0 h 2 m 1,0 h 2 m 1,0 h 1 m 3,0 h 3 m 2,0 h 1 M 2,31 h 1 m 1,0 h 3 m 1,0 h 1 m 1,0 h 1 m 1,0 h 5 m 1,0 h 2 m 1,0 h 2 m 3,0 h 3 m 1,0 h 1 m 3,0 h 1 m 1,0 h 6 m 3,0 h 5 m 3,0 h 1 m 3,0 h 1 m 1,0 h 2 m 2,0 h 1 M 5,32 h 2 m 1,0 h 2 m 2,0 h 1 m 2,0 h 1 m 2,0 h 2 m 2,0 h 3 m 1,0 h 2 m 1,0 h 1 m 2,0 h 1 m 1,0 h 2 m 5,0 h 1 m 3,0 h 6 m 8,0 h 1 m 3,0 h 1 M 1,33 h 2 m 2,0 h 1 m 1,0 h 2 m 1,0 h 1 m 2,0 h 1 m 1,0 h 3 m 1,0 h 2 m 2,0 h 2 m 3,0 h 2 m 2,0 h 1 m 3,0 h 7 m 2,0 h 1 m 1,0 h 4 m 1,0 h 2 m 1,0 h 1 m 1,0 h 2 m 1,0 h 4 M 0,34 h 6 m 8,0 h 2 m 1,0 h 1 m 2,0 h 2 m 1,0 h 1 m 3,0 h 3 m 2,0 h 4 m 1,0 h 4 m 1,0 h 2 m 1,0 h 5 m 2,0 h 3 m 1,0 h 2 m 2,0 h 1 m 1,0 h 1 M 0,35 h 1 m 2,0 h 2 m 2,0 h 1 m 2,0 h 2 m 4,0 h 1 m 1,0 h 6 m 2,0 h 1 m 1,0 h 1 m 1,0 h 1 m 3,0 h 2 m 1,0 h 8 m 1,0 h 4 m 1,0 h 1 m 1,0 h 1 m 1,0 h 1 m 1,0 h 3 m 1,0 h 1 m 1,0 h 1 M 0,36 h 1 m 1,0 h 2 m 1,0 h 1 m 1,0 h 2 m 2,0 h 8 m 1,0 h 2 m 2,0 h 1 m 1,0 h 6 m 1,0 h 5 m 1,0 h 1 m 1,0 h 1 m 3,0 h 2 m 1,0 h 2 m 1,0 h 2 m 3,0 h 1 m 1,0 h 1 m 1,0 h 2 m 1,0 h 1 M 4,37 h 2 m 1,0 h 2 m 1,0 h 3 m 1,0 h 4 m 1,0 h 2 m 2,0 h 2 m 2,0 h 3 m 1,0 h 1 m 2,0 h 2 m 1,0 h 1 m 2,0 h 1 m 2,0 h 2 m 2,0 h 1 m 1,0 h 1 m 3,0 h 2 m 3,0 h 1 m 4,0 h 1 M 0,38 h 3 m 2,0 h 2 m 4,0 h 3 m 4,0 h 1 m 1,0 h 2 m 2,0 h 1 m 3,0 h 2 m 1,0 h 4 m 8,0 h 1 m 1,0 h 1 m 1,0 h 4 m 2,0 h 3 m 2,0 h 1 m 2,0 h 1 M 3,39 h 1 m 2,0 h 1 m 2,0 h 1 m 5,0 h 2 m 2,0 h 1 m 1,0 h 2 m 1,0 h 3 m 1,0 h 3 m 1,0 h 1 m 2,0 h 2 m 2,0 h 1 m 1,0 h 1 m 4,0 h 2 m 4,0 h 5 m 3,0 h 1 m 1,0 h 2 M 2,40 h 3 m 1,0 h 1 m 5,0 h 6 m 2,0 h 1 m 1,0 h 2 m 2,0 h 1 m 1,0 h 3 m 1,0 h 2 m 2,0 h 1 m 2,0 h 1 m 6,0 h 5 m 1,0 h 2 m 4,0 h 4 M 0,41 h 1 m 2,0 h 5 m 1,0 h 2 m 1,0 h 2 m 5,0 h 1 m 2,0 h 5 m 2,0 h 7 m 1,0 h 2 m 2,0 h 1 m 1,0 h 1 m 6,0 h 4 m 1,0 h 7 m 1,0 h 1 M 0,42 h 1 m 1,0 h 1 m 1,0 h 1 m 1,0 h 1 m 1,0 h 1 m 1,0 h 2 m 2,0 h 2 m 1,0 h 5 m 1,0 h 1 m 2,0 h 2 m 1,0 h 1 m 2,0 h 1 m 2,0 h 2 m 2,0 h 1 m 6,0 h 1 m 2,0 h 1 m 1,0 h 1 m 2,0 h 1 m 2,0 h 1 m 1,0 h 2 m 2,0 h 1 M 1,43 h 1 m 3,0 h 2 m 3,0 h 4 m 5,0 h 3 m 3,0 h 2 m 2,0 h 1 m 2,0 h 1 m 3,0 h 2 m 1,0 h 2 m 1,0 h 1 m 4,0 h 2 m 2,0 h 1 m 1,0 h 1 m 1,0 h 2 m 4,0 h 1 M 0,44 h 1 m 3,0 h 7 m 1,0 h 4 m 1,0 h 3 m 1,0 h 1 m 8,0 h 2 m 3,0 h 1 m 1,0 h 4 m 5,0 h 3 m 2,0 h 1 m 1,0 h 1 m 1,0 h 1 m 3,0 h 2 m 2,0 h 1 M 0,45 h 1 m 1,0 h 1 m 2,0 h 1 m 2,0 h 3 m 7,0 h 1 m 2,0 h 2 m 1,0 h 1 m 1,0 h 4 m 1,0 h 1 m 3,0 h 2 m 2,0 h 1 m 2,0 h 5 m 2,0 h 6 m 1,0 h 1 m 1,0 h 2 m 2,0 h 2 M 0,46 h 1 m 2,0 h 4 m 1,0 h 1 m 1,0 h 1 m 1,0 h 1 m 1,0 h 1 m 1,0 h 1 m 2,0 h 1 m 1,0 h 2 m 1,0 h 1 m 3,0 h 3 m 1,0 h 1 m 1,0 h 1 m 1,0 h 2 m 1,0 h 4 m 2,0 h 4 m 3,0 h 3 m 2,0 h 2 m 3,0 h 1 M 1,47 h 1 m 1,0 h 1 m 2,0 h 1 m 2,0 h 2 m 2,0 h 2 m 4,0 h 1 m 4,0 h 3 m 3,0 h 1 m 3,0 h 1 m 3,0 h 2 m 1,0 h 3 m 3,0 h 1 m 3,0 h 1 m 4,0 h 2 m 4,0 h 1 M 1,48 h 2 m 7,0 h 1 m 3,0 h 1 m 2,0 h 7 m 2,0 h 2 m 1,0 h 3 m 7,0 h 2 m 3,0 h 2 m 1,0 h 3 m 1,0 h 3 m 2,0 h 1 m 3,0 h 2 M 2,49 h 1 m 3,0 h 1 m 1,0 h 1 m 2,0 h 2 m 1,0 h 1 m 1,0 h 3 m 3,0 h 1 m 1,0 h 1 m 2,0 h 1 m 3,0 h 4 m 1,0 h 1 m 4,0 h 2 m 1,0 h 1 m 1,0 h 1 m 2,0 h 1 m 1,0 h 5 m 3,0 h 4 M 1,50 h 3 m 3,0 h 2 m 2,0 h 1 m 1,0 h 1 m 3,0 h 1 m 1,0 h 4 m 1,0 h 1 m 2,0 h 4 m 4,0 h 1 m 7,0 h 1 m 2,0 h 2 m 1,0 h 4 m 2,0 h 2 m 1,0 h 1 m 1,0 h 2 M 0,51 h 1 m 7,0 h 6 m 1,0 h 2 m 5,0 h 1 m 1,0 h 2 m 1,0 h 1 m 2,0 h 3 m 2,0 h 2 m 1,0 h 2 m 2,0 h 3 m 1,0 h 2 m 2,0 h 2 m 2,0 h 1 m 2,0 h 1 m 2,0 h 2 m 1,0 h 1 M 0,52 h 3 m 1,0 h 1 m 2,0 h 3 m 1,0 h 1 m 1,0 h 1 m 2,0 h 4 m 2,0 h 1 m 3,0 h 3 m 1,0 h 2 m 1,0 h 1 m 1,0 h 2 m 4,0 h 1 m 2,0 h 2 m 1,0 h 1 m 2,0 h 2 m 1,0 h 1 m 2,0 h 1 m 2,0 h 1 m 2,0 h 1 M 0,53 h 1 m 3,0 h 1 m 3,0 h 1 m 2,0 h 1 m 1,0 h 1 m 1,0 h 2 m 1,0 h 1 m 3,0 h 1 m 1,0 h 2 m 1,0 h 3 m 1,0 h 1 m 1,0 h 2 m 1,0 h 2 m 2,0 h 6 m 1,0 h 2 m 2,0 h 3 m 2,0 h 1 m 1,0 h 1 M 1,54 h 1 m 1,0 h 2 m 1,0 h 1 m 1,0 h 2 m 4,0 h 1 m 2,0 h 1 m 1,0 h 3 m 1,0 h 5 m 1,0 h 2 m 1,0 h 3 m 1,0 h 2 m 2,0 h 2 m 2,0 h 2 m 1,0 h 1 m 1,0 h 3 m 2,0 h 9 M 0,55 h 1 m 2,0 h 2 m 1,0 h 1 m 3,0 h 1 m 1,0 h 1 m 2,0 h 1 m 3,0 h 1 m 6,0 h 2 m 1,0 h 2 m 2,0 h 1 m 1,0 h 2 m 1,0 h 3 m 1,0 h 1 m 1,0 h 1 m 6,0 h 1 m 3,0 h 5 m 2,0 h 1 M 1,56 h 1 m 1,0 h 1 m 1,0 h 1 m 1,0 h 1 m 5,0 h 3 m 3,0 h 2 m 2,0 h 1 m 1,0 h 2 m 2,0 h 1 m 1,0 h 1 m 2,0 h 1 m 1,0 h 5 m 1,0 h 5 m 2,0 h 4 m 1,0 h 5 m 3,0 h 2 M 2,57 h 1 m 2,0 h 1 m 3,0 h 4 m 1,0 h 3 m 1,0 h 1 m 8,0 h 2 m 2,0 h 1 m 1,0 h 1 m 3,0 h 3 m 2,0 h 1 m 2,0 h 2 m 2,0 h 1 m 2,0 h 1 m 4,0 h 1 m 3,0 h 3 M 2,58 h 1 m 2,0 h 2 m 2,0 h 1 m 1,0 h 1 m 1,0 h 1 m 1,0 h 3 m 1,0 h 1 m 3,0 h 1 m 3,0 h 1 m 3,0 h 1 m 1,0 h 6 m 3,0 h 1 m 1,0 h 1 m 4,0 h 1 m 1,0 h 1 m 1,0 h 2 m 5,0 h 4 M 1,59 h 1 m 2,0 h 1 m 1,0 h 2 m 1,0 h 1 m 2,0 h 1 m 2,0 h 2 m 1,0 h 3 m 2,0 h 1 m 1,0 h 1 m 1,0 h 1 m 1,0 h 2 m 4,0 h 1 m 2,0 h 2 m 1,0 h 3 m 3,0 h 3 m 2,0 h 2 m 3,0 h 2 m 1,0 h 1 m 1,0 h 1 M 0,60 h 1 m 2,0 h 2 m 1,0 h 2 m 2,0 h 1 m 2,0 h 1 m 3,0 h 1 m 6,0 h 2 m 1,0 h 2 m 1,0 h 1 m 1,0 h 3 m 1,0 h 1 m 1,0 h 1 m 5,0 h 2 m 2,0 h 1 m 3,0 h 1 m 1,0 h 1 m 1,0 h 3 m 1,0 h 3 M 0,61 h 2 m 1,0 h 1 m 1,0 h 2 m 1,0 h 5 m 1,0 h 2 m 2,0 h 1 m 3,0 h 1 m 2,0 h 7 m 2,0 h 1 m 1,0 h 1 m 9,0 h 3 m 6,0 h 5 m 2,0 h 1 M 0,62 h 1 m 1,0 h 3 m 1,0 h 1 m 3,0 h 1 m 2,0 h 1 m 2,0 h 1 m 5,0 h 1 m 9,0 h 1 m 1,0 h 1 m 3,0 h 2 m 2,0 h 1 m 2,0 h 1 m 1,0 h 1 m 1,0 h 4 m 1,0 h 2 m 2,0 h 2 M 2,63 h 2 m 1,0 h 1 m 1,0 h 1 m 1,0 h 1 m 1,0 h 1 m 3,0 h 5 m 2,0 h 1 m 2,0 h 1 m 2,0 h 3 m 5,0 h 5 m 4,0 h 1 m 2,0 h 1 m 4,0 h 2 m 1,0 h 1 m 2,0 h 1 m 1,0 h 1"
         id="path955" />
      <path
         stroke="#ffffff"
         d="m 4,0 h 4 m 1,0 h 1 m 2,0 h 2 m 5,0 h 2 m 1,0 h 1 m 1,0 h 3 m 1,0 h 5 m 1,0 h 1 m 3,0 h 1 m 1,0 h 3 m 2,0 h 2 m 2,0 h 3 m 2,0 h 3 m 2,0 h 1 m 1,0 h 2 M 1,1 h 1 m 4,0 h 3 m 2,0 h 1 m 2,0 h 1 m 1,0 h 1 m 1,0 h 2 m 1,0 h 1 m 1,0 h 2 m 1,0 h 5 m 3,0 h 1 m 1,0 h 2 m 1,0 h 1 m 1,0 h 2 m 4,0 h 1 m 4,0 h 1 m 2,0 h 1 m 1,0 h 1 m 3,0 h 3 M 0,2 h 2 m 1,0 h 1 m 1,0 h 4 m 2,0 h 1 m 2,0 h 1 m 1,0 h 1 m 2,0 h 5 m 1,0 h 3 m 6,0 h 1 m 1,0 h 3 m 1,0 h 2 m 1,0 h 1 m 2,0 h 2 m 1,0 h 1 m 3,0 h 1 m 2,0 h 1 m 1,0 h 6 M 1,3 h 2 m 1,0 h 1 m 1,0 h 1 m 1,0 h 1 m 1,0 h 1 m 2,0 h 1 m 3,0 h 1 m 2,0 h 1 m 2,0 h 1 m 7,0 h 1 m 1,0 h 3 m 1,0 h 2 m 1,0 h 1 m 2,0 h 2 m 1,0 h 3 m 1,0 h 1 m 1,0 h 2 m 4,0 h 1 m 1,0 h 4 M 0,4 h 2 m 3,0 h 2 m 2,0 h 4 m 1,0 h 2 m 1,0 h 2 m 1,0 h 5 m 3,0 h 1 m 1,0 h 1 m 5,0 h 2 m 1,0 h 1 m 1,0 h 2 m 10,0 h 1 m 1,0 h 2 m 1,0 h 1 m 1,0 h 3 M 0,5 h 2 m 1,0 h 1 m 1,0 h 1 m 2,0 h 1 m 1,0 h 1 m 2,0 h 3 m 1,0 h 2 m 3,0 h 1 m 1,0 h 1 m 1,0 h 2 m 2,0 h 1 m 2,0 h 2 m 2,0 h 2 m 1,0 h 1 m 1,0 h 1 m 2,0 h 1 m 1,0 h 4 m 2,0 h 1 m 1,0 h 4 m 3,0 h 1 M 1,6 h 1 m 1,0 h 1 m 1,0 h 3 m 1,0 h 5 m 1,0 h 1 m 1,0 h 1 m 1,0 h 1 m 3,0 h 1 m 1,0 h 2 m 1,0 h 2 m 1,0 h 2 m 3,0 h 2 m 3,0 h 2 m 1,0 h 2 m 2,0 h 1 m 1,0 h 1 m 2,0 h 4 m 1,0 h 3 m 2,0 h 1 M 0,7 h 7 m 2,0 h 2 m 1,0 h 3 m 2,0 h 1 m 3,0 h 1 m 2,0 h 1 m 1,0 h 1 m 1,0 h 2 m 3,0 h 1 m 2,0 h 5 m 4,0 h 1 m 1,0 h 2 m 3,0 h 1 m 4,0 h 4 m 1,0 h 1 M 4,8 h 5 m 2,0 h 1 m 1,0 h 2 m 1,0 h 3 m 6,0 h 1 m 1,0 h 2 m 2,0 h 1 m 1,0 h 5 m 1,0 h 3 m 1,0 h 2 m 3,0 h 3 m 5,0 h 2 m 1,0 h 2 m 2,0 h 1 M 1,9 h 1 m 1,0 h 5 m 4,0 h 1 m 2,0 h 3 m 2,0 h 3 m 4,0 h 1 m 1,0 h 1 m 1,0 h 1 m 2,0 h 2 m 4,0 h 1 m 1,0 h 1 m 6,0 h 1 m 1,0 h 2 m 2,0 h 1 m 2,0 h 4 M 0,10 h 1 m 1,0 h 1 m 1,0 h 5 m 2,0 h 1 m 7,0 h 1 m 2,0 h 3 m 2,0 h 1 m 2,0 h 2 m 2,0 h 4 m 1,0 h 1 m 1,0 h 4 m 1,0 h 2 m 1,0 h 2 m 2,0 h 1 m 2,0 h 2 m 1,0 h 2 m 1,0 h 1 M 2,11 h 3 m 2,0 h 1 m 1,0 h 3 m 1,0 h 2 m 1,0 h 1 m 1,0 h 1 m 4,0 h 3 m 1,0 h 2 m 2,0 h 1 m 2,0 h 5 m 1,0 h 2 m 1,0 h 1 m 2,0 h 2 m 1,0 h 2 m 2,0 h 1 m 4,0 h 1 m 2,0 h 2 M 0,12 h 1 m 3,0 h 1 m 2,0 h 1 m 4,0 h 1 m 2,0 h 1 m 3,0 h 1 m 3,0 h 2 m 2,0 h 7 m 3,0 h 4 m 2,0 h 2 m 1,0 h 1 m 1,0 h 1 m 3,0 h 2 m 2,0 h 1 m 1,0 h 5 M 0,13 h 1 m 2,0 h 1 m 3,0 h 1 m 2,0 h 1 m 1,0 h 3 m 3,0 h 1 m 5,0 h 1 m 1,0 h 2 m 1,0 h 2 m 1,0 h 6 m 1,0 h 1 m 1,0 h 3 m 2,0 h 2 m 1,0 h 1 m 1,0 h 3 m 2,0 h 2 m 5,0 h 1 M 0,14 h 1 m 1,0 h 1 m 1,0 h 5 m 2,0 h 1 m 1,0 h 2 m 2,0 h 1 m 3,0 h 2 m 3,0 h 4 m 1,0 h 2 m 1,0 h 1 m 6,0 h 2 m 1,0 h 1 m 1,0 h 2 m 4,0 h 2 m 3,0 h 3 m 2,0 h 1 M 2,15 h 1 m 1,0 h 1 m 1,0 h 3 m 5,0 h 1 m 1,0 h 1 m 1,0 h 3 m 1,0 h 1 m 1,0 h 4 m 1,0 h 2 m 7,0 h 1 m 3,0 h 2 m 2,0 h 4 m 1,0 h 1 m 1,0 h 2 m 1,0 h 1 m 2,0 h 1 m 1,0 h 3 M 1,16 h 2 m 2,0 h 1 m 2,0 h 4 m 2,0 h 1 m 1,0 h 2 m 2,0 h 2 m 1,0 h 1 m 1,0 h 2 m 1,0 h 1 m 1,0 h 1 m 2,0 h 1 m 2,0 h 1 m 2,0 h 1 m 1,0 h 5 m 1,0 h 1 m 2,0 h 1 m 3,0 h 3 m 4,0 h 3 M 0,17 h 1 m 1,0 h 1 m 1,0 h 1 m 1,0 h 6 m 2,0 h 2 m 1,0 h 3 m 2,0 h 1 m 6,0 h 1 m 5,0 h 1 m 2,0 h 2 m 3,0 h 1 m 14,0 h 1 M 0,18 h 1 m 3,0 h 2 m 1,0 h 3 m 2,0 h 3 m 1,0 h 1 m 1,0 h 1 m 3,0 h 3 m 2,0 h 1 m 1,0 h 1 m 3,0 h 1 m 2,0 h 1 m 4,0 h 1 m 1,0 h 3 m 1,0 h 1 m 3,0 h 1 m 2,0 h 1 m 1,0 h 2 m 2,0 h 1 m 2,0 h 1 M 0,19 h 1 m 1,0 h 1 m 1,0 h 1 m 1,0 h 1 m 6,0 h 2 m 1,0 h 1 m 2,0 h 7 m 2,0 h 1 m 3,0 h 1 m 2,0 h 2 m 1,0 h 3 m 2,0 h 2 m 1,0 h 2 m 1,0 h 5 m 1,0 h 1 m 1,0 h 1 m 1,0 h 2 m 1,0 h 1 M 0,20 h 2 m 5,0 h 2 m 2,0 h 1 m 4,0 h 1 m 1,0 h 4 m 1,0 h 1 m 4,0 h 1 m 1,0 h 2 m 2,0 h 1 m 3,0 h 2 m 2,0 h 1 m 1,0 h 1 m 2,0 h 1 m 2,0 h 1 m 1,0 h 1 m 1,0 h 1 m 2,0 h 1 m 1,0 h 2 m 1,0 h 2 M 1,21 h 4 m 3,0 h 1 m 2,0 h 5 m 2,0 h 3 m 1,0 h 1 m 2,0 h 2 m 1,0 h 1 m 2,0 h 1 m 2,0 h 1 m 2,0 h 2 m 2,0 h 2 m 4,0 h 3 m 2,0 h 3 m 1,0 h 2 m 1,0 h 1 m 1,0 h 3 M 1,22 h 2 m 1,0 h 1 m 2,0 h 1 m 2,0 h 1 m 1,0 h 1 m 1,0 h 1 m 2,0 h 1 m 6,0 h 1 m 4,0 h 3 m 3,0 h 2 m 1,0 h 3 m 2,0 h 1 m 2,0 h 2 m 2,0 h 1 m 3,0 h 1 m 1,0 h 3 m 1,0 h 1 m 2,0 h 1 M 0,23 h 4 m 1,0 h 1 m 1,0 h 1 m 2,0 h 1 m 2,0 h 3 m 1,0 h 1 m 3,0 h 1 m 4,0 h 7 m 1,0 h 2 m 1,0 h 4 m 6,0 h 1 m 1,0 h 3 m 2,0 h 2 m 3,0 h 5 M 3,24 h 2 m 3,0 h 2 m 1,0 h 4 m 1,0 h 3 m 1,0 h 1 m 2,0 h 1 m 3,0 h 2 m 1,0 h 1 m 1,0 h 2 m 1,0 h 2 m 2,0 h 2 m 1,0 h 2 m 2,0 h 1 m 5,0 h 1 m 2,0 h 1 m 2,0 h 1 m 2,0 h 3 M 3,25 h 3 m 1,0 h 2 m 1,0 h 1 m 1,0 h 1 m 1,0 h 2 m 2,0 h 2 m 2,0 h 4 m 5,0 h 4 m 3,0 h 1 m 1,0 h 1 m 1,0 h 3 m 2,0 h 1 m 1,0 h 1 m 1,0 h 1 m 2,0 h 2 m 2,0 h 4 M 0,26 h 1 m 1,0 h 1 m 2,0 h 4 m 4,0 h 8 m 2,0 h 4 m 3,0 h 1 m 2,0 h 2 m 1,0 h 2 m 1,0 h 1 m 1,0 h 1 m 2,0 h 6 m 6,0 h 2 m 1,0 h 1 m 2,0 h 1 M 1,27 h 1 m 1,0 h 1 m 1,0 h 3 m 1,0 h 2 m 1,0 h 1 m 1,0 h 6 m 1,0 h 1 m 1,0 h 2 m 4,0 h 1 m 1,0 h 1 m 4,0 h 4 m 1,0 h 2 m 1,0 h 2 m 1,0 h 1 m 1,0 h 1 m 2,0 h 2 m 2,0 h 7 M 0,28 h 1 m 2,0 h 2 m 1,0 h 1 m 5,0 h 1 m 1,0 h 1 m 1,0 h 1 m 1,0 h 1 m 4,0 h 1 m 3,0 h 1 m 1,0 h 3 m 2,0 h 2 m 1,0 h 1 m 3,0 h 2 m 1,0 h 1 m 2,0 h 1 m 1,0 h 2 m 3,0 h 1 m 2,0 h 6 M 5,29 h 1 m 7,0 h 1 m 1,0 h 1 m 1,0 h 5 m 1,0 h 1 m 2,0 h 4 m 1,0 h 4 m 1,0 h 3 m 1,0 h 1 m 2,0 h 6 m 2,0 h 1 m 1,0 h 2 m 1,0 h 3 m 1,0 h 1 m 2,0 h 1 M 2,30 h 3 m 1,0 h 1 m 2,0 h 1 m 3,0 h 2 m 2,0 h 1 m 1,0 h 5 m 1,0 h 1 m 2,0 h 1 m 3,0 h 3 m 1,0 h 1 m 5,0 h 2 m 2,0 h 1 m 2,0 h 1 m 2,0 h 1 m 1,0 h 3 m 3,0 h 2 m 1,0 h 1 M 0,31 h 2 m 1,0 h 1 m 3,0 h 1 m 1,0 h 1 m 1,0 h 1 m 5,0 h 1 m 2,0 h 1 m 2,0 h 3 m 3,0 h 1 m 1,0 h 3 m 1,0 h 1 m 6,0 h 3 m 5,0 h 3 m 1,0 h 3 m 1,0 h 1 m 2,0 h 2 M 0,32 h 5 m 2,0 h 1 m 2,0 h 2 m 1,0 h 2 m 1,0 h 2 m 2,0 h 2 m 3,0 h 1 m 2,0 h 1 m 1,0 h 2 m 1,0 h 1 m 2,0 h 5 m 1,0 h 3 m 6,0 h 8 m 1,0 h 3 M 0,33 h 1 m 2,0 h 2 m 1,0 h 1 m 2,0 h 1 m 1,0 h 2 m 1,0 h 1 m 3,0 h 1 m 2,0 h 2 m 2,0 h 3 m 2,0 h 2 m 1,0 h 3 m 7,0 h 2 m 1,0 h 1 m 4,0 h 1 m 2,0 h 1 m 1,0 h 1 m 2,0 h 1 M 6,34 h 8 m 2,0 h 1 m 1,0 h 2 m 2,0 h 1 m 1,0 h 3 m 3,0 h 2 m 4,0 h 1 m 4,0 h 1 m 2,0 h 1 m 5,0 h 2 m 3,0 h 1 m 2,0 h 2 m 1,0 h 1 m 1,0 h 1 M 1,35 h 2 m 2,0 h 2 m 1,0 h 2 m 2,0 h 4 m 1,0 h 1 m 6,0 h 2 m 1,0 h 1 m 1,0 h 1 m 1,0 h 3 m 2,0 h 1 m 8,0 h 1 m 4,0 h 1 m 1,0 h 1 m 1,0 h 1 m 1,0 h 1 m 3,0 h 1 m 1,0 h 1 M 1,36 h 1 m 2,0 h 1 m 1,0 h 1 m 2,0 h 2 m 8,0 h 1 m 2,0 h 2 m 1,0 h 1 m 6,0 h 1 m 5,0 h 1 m 1,0 h 1 m 1,0 h 3 m 2,0 h 1 m 2,0 h 1 m 2,0 h 3 m 1,0 h 1 m 1,0 h 1 m 2,0 h 1 M 0,37 h 4 m 2,0 h 1 m 2,0 h 1 m 3,0 h 1 m 4,0 h 1 m 2,0 h 2 m 2,0 h 2 m 3,0 h 1 m 1,0 h 2 m 2,0 h 1 m 1,0 h 2 m 1,0 h 2 m 2,0 h 2 m 1,0 h 1 m 1,0 h 3 m 2,0 h 3 m 1,0 h 4 M 3,38 h 2 m 2,0 h 4 m 3,0 h 4 m 1,0 h 1 m 2,0 h 2 m 1,0 h 3 m 2,0 h 1 m 4,0 h 8 m 1,0 h 1 m 1,0 h 1 m 4,0 h 2 m 3,0 h 2 m 1,0 h 2 m 1,0 h 2 M 0,39 h 3 m 1,0 h 2 m 1,0 h 2 m 1,0 h 5 m 2,0 h 2 m 1,0 h 1 m 2,0 h 1 m 3,0 h 1 m 3,0 h 1 m 1,0 h 2 m 2,0 h 2 m 1,0 h 1 m 1,0 h 4 m 2,0 h 4 m 5,0 h 3 m 1,0 h 1 M 0,40 h 2 m 3,0 h 1 m 1,0 h 5 m 6,0 h 2 m 1,0 h 1 m 2,0 h 2 m 1,0 h 1 m 3,0 h 1 m 2,0 h 2 m 1,0 h 2 m 1,0 h 6 m 5,0 h 1 m 2,0 h 4 m 4,0 h 2 M 1,41 h 2 m 5,0 h 1 m 2,0 h 1 m 2,0 h 5 m 1,0 h 2 m 5,0 h 2 m 7,0 h 1 m 2,0 h 2 m 1,0 h 1 m 1,0 h 6 m 4,0 h 1 m 7,0 h 1 M 1,42 h 1 m 1,0 h 1 m 1,0 h 1 m 1,0 h 1 m 1,0 h 1 m 2,0 h 2 m 2,0 h 1 m 5,0 h 1 m 1,0 h 2 m 2,0 h 1 m 1,0 h 2 m 1,0 h 2 m 2,0 h 2 m 1,0 h 6 m 1,0 h 2 m 1,0 h 1 m 1,0 h 2 m 1,0 h 2 m 1,0 h 1 m 2,0 h 2 M 0,43 h 1 m 1,0 h 3 m 2,0 h 3 m 4,0 h 5 m 3,0 h 3 m 2,0 h 2 m 1,0 h 2 m 1,0 h 3 m 2,0 h 1 m 2,0 h 1 m 1,0 h 4 m 2,0 h 2 m 1,0 h 1 m 1,0 h 1 m 2,0 h 4 m 1,0 h 2 M 1,44 h 3 m 7,0 h 1 m 4,0 h 1 m 3,0 h 1 m 1,0 h 8 m 2,0 h 3 m 1,0 h 1 m 4,0 h 5 m 3,0 h 2 m 1,0 h 1 m 1,0 h 1 m 1,0 h 3 m 2,0 h 2 M 1,45 h 1 m 1,0 h 2 m 1,0 h 2 m 3,0 h 7 m 1,0 h 2 m 2,0 h 1 m 1,0 h 1 m 4,0 h 1 m 1,0 h 3 m 2,0 h 2 m 1,0 h 2 m 5,0 h 2 m 6,0 h 1 m 1,0 h 1 m 2,0 h 2 M 1,46 h 2 m 4,0 h 1 m 1,0 h 1 m 1,0 h 1 m 1,0 h 1 m 1,0 h 1 m 1,0 h 2 m 1,0 h 1 m 2,0 h 1 m 1,0 h 3 m 3,0 h 1 m 1,0 h 1 m 1,0 h 1 m 2,0 h 1 m 4,0 h 2 m 4,0 h 3 m 3,0 h 2 m 2,0 h 3 m 1,0 h 1 M 0,47 h 1 m 1,0 h 1 m 1,0 h 2 m 1,0 h 2 m 2,0 h 2 m 2,0 h 4 m 1,0 h 4 m 3,0 h 3 m 1,0 h 3 m 1,0 h 3 m 2,0 h 1 m 3,0 h 3 m 1,0 h 3 m 1,0 h 4 m 2,0 h 4 m 1,0 h 1 M 0,48 h 1 m 2,0 h 7 m 1,0 h 3 m 1,0 h 2 m 7,0 h 2 m 2,0 h 1 m 3,0 h 7 m 2,0 h 3 m 2,0 h 1 m 3,0 h 1 m 3,0 h 2 m 1,0 h 3 m 2,0 h 2 M 0,49 h 2 m 1,0 h 3 m 1,0 h 1 m 1,0 h 2 m 2,0 h 1 m 1,0 h 1 m 3,0 h 3 m 1,0 h 1 m 1,0 h 2 m 1,0 h 3 m 4,0 h 1 m 1,0 h 4 m 2,0 h 1 m 1,0 h 1 m 1,0 h 2 m 1,0 h 1 m 5,0 h 3 m 4,0 h 1 M 0,50 h 1 m 3,0 h 3 m 2,0 h 2 m 1,0 h 1 m 1,0 h 3 m 1,0 h 1 m 4,0 h 1 m 1,0 h 2 m 4,0 h 4 m 1,0 h 7 m 1,0 h 2 m 2,0 h 1 m 4,0 h 2 m 2,0 h 1 m 1,0 h 1 m 2,0 h 2 M 1,51 h 7 m 6,0 h 1 m 2,0 h 5 m 1,0 h 1 m 2,0 h 1 m 1,0 h 2 m 3,0 h 2 m 2,0 h 1 m 2,0 h 2 m 3,0 h 1 m 2,0 h 2 m 2,0 h 2 m 1,0 h 2 m 1,0 h 2 m 2,0 h 1 M 3,52 h 1 m 1,0 h 2 m 3,0 h 1 m 1,0 h 1 m 1,0 h 2 m 4,0 h 2 m 1,0 h 3 m 3,0 h 1 m 2,0 h 1 m 1,0 h 1 m 2,0 h 4 m 1,0 h 2 m 2,0 h 1 m 1,0 h 2 m 2,0 h 1 m 1,0 h 2 m 1,0 h 2 m 1,0 h 2 m 1,0 h 1 M 1,53 h 3 m 1,0 h 3 m 1,0 h 2 m 1,0 h 1 m 1,0 h 1 m 2,0 h 1 m 1,0 h 3 m 1,0 h 1 m 2,0 h 1 m 3,0 h 1 m 1,0 h 1 m 2,0 h 1 m 2,0 h 2 m 6,0 h 1 m 2,0 h 2 m 3,0 h 2 m 1,0 h 1 m 1,0 h 5 M 0,54 h 1 m 1,0 h 1 m 2,0 h 1 m 1,0 h 1 m 2,0 h 4 m 1,0 h 2 m 1,0 h 1 m 3,0 h 1 m 5,0 h 1 m 2,0 h 1 m 3,0 h 1 m 2,0 h 2 m 2,0 h 2 m 2,0 h 1 m 1,0 h 1 m 3,0 h 2 m 9,0 h 1 M 1,55 h 2 m 2,0 h 1 m 1,0 h 3 m 1,0 h 1 m 1,0 h 2 m 1,0 h 3 m 1,0 h 6 m 2,0 h 1 m 2,0 h 2 m 1,0 h 1 m 2,0 h 1 m 3,0 h 1 m 1,0 h 1 m 1,0 h 6 m 1,0 h 3 m 5,0 h 2 m 1,0 h 1 M 0,56 h 1 m 1,0 h 1 m 1,0 h 1 m 1,0 h 1 m 1,0 h 5 m 3,0 h 3 m 2,0 h 2 m 1,0 h 1 m 2,0 h 2 m 1,0 h 1 m 1,0 h 2 m 1,0 h 1 m 5,0 h 1 m 5,0 h 2 m 4,0 h 1 m 5,0 h 3 M 0,57 h 2 m 1,0 h 2 m 1,0 h 3 m 4,0 h 1 m 3,0 h 1 m 1,0 h 8 m 2,0 h 2 m 1,0 h 1 m 1,0 h 3 m 3,0 h 2 m 1,0 h 2 m 2,0 h 2 m 1,0 h 2 m 1,0 h 4 m 1,0 h 3 M 0,58 h 2 m 1,0 h 2 m 2,0 h 2 m 1,0 h 1 m 1,0 h 1 m 1,0 h 1 m 3,0 h 1 m 1,0 h 3 m 1,0 h 3 m 1,0 h 3 m 1,0 h 1 m 6,0 h 3 m 1,0 h 1 m 1,0 h 4 m 1,0 h 1 m 1,0 h 1 m 2,0 h 5 M 0,59 h 1 m 1,0 h 2 m 1,0 h 1 m 2,0 h 1 m 1,0 h 2 m 1,0 h 2 m 2,0 h 1 m 3,0 h 2 m 1,0 h 1 m 1,0 h 1 m 1,0 h 1 m 2,0 h 4 m 1,0 h 2 m 2,0 h 1 m 3,0 h 3 m 3,0 h 2 m 2,0 h 3 m 2,0 h 1 m 1,0 h 1 m 1,0 h 1 M 1,60 h 2 m 2,0 h 1 m 2,0 h 2 m 1,0 h 2 m 1,0 h 3 m 1,0 h 6 m 2,0 h 1 m 2,0 h 1 m 1,0 h 1 m 3,0 h 1 m 1,0 h 1 m 1,0 h 5 m 2,0 h 2 m 1,0 h 3 m 1,0 h 1 m 1,0 h 1 m 3,0 h 1 m 3,0 h 1 M 2,61 h 1 m 1,0 h 1 m 2,0 h 1 m 5,0 h 1 m 2,0 h 2 m 1,0 h 3 m 1,0 h 2 m 7,0 h 2 m 1,0 h 1 m 1,0 h 9 m 3,0 h 6 m 5,0 h 2 m 1,0 h 1 M 1,62 h 1 m 3,0 h 1 m 1,0 h 3 m 1,0 h 2 m 1,0 h 2 m 1,0 h 5 m 1,0 h 9 m 1,0 h 1 m 1,0 h 3 m 2,0 h 2 m 1,0 h 2 m 1,0 h 1 m 1,0 h 1 m 4,0 h 1 m 2,0 h 2 m 2,0 h 4 M 0,63 h 2 m 2,0 h 1 m 1,0 h 1 m 1,0 h 1 m 1,0 h 1 m 1,0 h 3 m 5,0 h 2 m 1,0 h 2 m 1,0 h 2 m 3,0 h 5 m 5,0 h 4 m 1,0 h 2 m 1,0 h 4 m 2,0 h 1 m 1,0 h 2 m 1,0 h 1 m 1,0 h 2"
         id="path957" />
    </g>
  </g>
  <g
     inkscape:groupmode="layer"
     id="layer2"
     inkscape:label="Cross"
     style="display:inline">
    <g
       style="shape-rendering:crispEdges"
       id="g1184"
       transform="matrix(2.1495313,0,0,2.1495313,36.214998,80.789764)">
      <path
         stroke="#000000"
         d="M 0,0 H 64 M 0,1 h 2 m 60,0 h 2 M 0,2 h 1 m 1,0 h 1 m 58,0 h 1 m 1,0 h 1 M 0,3 h 1 m 2,0 h 1 m 56,0 h 1 m 2,0 h 1 M 0,4 h 1 m 3,0 h 56 m 3,0 h 1 M 0,5 h 1 m 3,0 h 2 m 52,0 h 2 m 3,0 h 1 M 0,6 h 1 m 3,0 h 1 m 1,0 h 1 m 50,0 h 1 m 1,0 h 1 m 3,0 h 1 M 0,7 h 1 m 3,0 h 1 m 2,0 h 1 m 48,0 h 1 m 2,0 h 1 m 3,0 h 1 M 0,8 h 1 m 3,0 h 1 m 3,0 h 1 m 46,0 h 1 m 3,0 h 1 m 3,0 h 1 M 0,9 h 1 m 3,0 h 1 m 4,0 h 1 m 44,0 h 1 m 4,0 h 1 m 3,0 h 1 M 0,10 h 1 m 3,0 h 1 m 5,0 h 1 m 42,0 h 1 m 5,0 h 1 m 3,0 h 1 M 0,11 h 1 m 3,0 h 1 m 6,0 h 1 m 40,0 h 1 m 6,0 h 1 m 3,0 h 1 M 0,12 h 1 m 3,0 h 1 m 7,0 h 1 m 38,0 h 1 m 7,0 h 1 m 3,0 h 1 M 0,13 h 1 m 3,0 h 1 m 8,0 h 1 m 36,0 h 1 m 8,0 h 1 m 3,0 h 1 M 0,14 h 1 m 3,0 h 1 m 9,0 h 1 m 34,0 h 1 m 9,0 h 1 m 3,0 h 1 M 0,15 h 1 m 3,0 h 1 m 10,0 h 1 m 32,0 h 1 m 10,0 h 1 m 3,0 h 1 M 0,16 h 1 m 3,0 h 1 m 11,0 h 1 m 30,0 h 1 m 11,0 h 1 m 3,0 h 1 M 0,17 h 1 m 3,0 h 1 m 12,0 h 1 m 28,0 h 1 m 12,0 h 1 m 3,0 h 1 M 0,18 h 1 m 3,0 h 1 m 13,0 h 1 m 26,0 h 1 m 13,0 h 1 m 3,0 h 1 M 0,19 h 1 m 3,0 h 1 m 14,0 h 1 m 24,0 h 1 m 14,0 h 1 m 3,0 h 1 M 0,20 h 1 m 3,0 h 1 m 15,0 h 1 m 22,0 h 1 m 15,0 h 1 m 3,0 h 1 M 0,21 h 1 m 3,0 h 1 m 16,0 h 1 m 20,0 h 1 m 16,0 h 1 m 3,0 h 1 M 0,22 h 1 m 3,0 h 1 m 17,0 h 1 m 18,0 h 1 m 17,0 h 1 m 3,0 h 1 M 0,23 h 1 m 3,0 h 1 m 18,0 h 1 m 16,0 h 1 m 18,0 h 1 m 3,0 h 1 M 0,24 h 1 m 3,0 h 1 m 19,0 h 1 m 14,0 h 1 m 19,0 h 1 m 3,0 h 1 M 0,25 h 1 m 3,0 h 1 m 20,0 h 1 m 12,0 h 1 m 20,0 h 1 m 3,0 h 1 M 0,26 h 1 m 3,0 h 1 m 21,0 h 1 m 10,0 h 1 m 21,0 h 1 m 3,0 h 1 M 0,27 h 1 m 3,0 h 1 m 22,0 h 1 m 8,0 h 1 m 22,0 h 1 m 3,0 h 1 M 0,28 h 1 m 3,0 h 1 m 23,0 h 1 m 6,0 h 1 m 23,0 h 1 m 3,0 h 1 M 0,29 h 1 m 3,0 h 1 m 16,0 h 6 m 2,0 h 1 m 4,0 h 1 m 24,0 h 1 m 3,0 h 1 M 0,30 h 1 m 3,0 h 1 m 16,0 h 1 m 4,0 h 1 m 3,0 h 1 m 2,0 h 1 m 25,0 h 1 m 3,0 h 1 M 0,31 h 1 m 3,0 h 1 m 16,0 h 1 m 1,0 h 2 m 1,0 h 1 m 4,0 h 2 m 26,0 h 1 m 3,0 h 1 M 0,32 h 1 m 3,0 h 1 m 16,0 h 1 m 1,0 h 2 m 1,0 h 1 m 4,0 h 2 m 26,0 h 1 m 3,0 h 1 M 0,33 h 1 m 3,0 h 1 m 16,0 h 1 m 4,0 h 1 m 3,0 h 1 m 2,0 h 1 m 25,0 h 1 m 3,0 h 1 M 0,34 h 1 m 3,0 h 1 m 16,0 h 6 m 2,0 h 1 m 4,0 h 1 m 24,0 h 1 m 3,0 h 1 M 0,35 h 1 m 3,0 h 1 m 23,0 h 1 m 6,0 h 1 m 23,0 h 1 m 3,0 h 1 M 0,36 h 1 m 3,0 h 1 m 22,0 h 1 m 8,0 h 1 m 22,0 h 1 m 3,0 h 1 M 0,37 h 1 m 3,0 h 1 m 21,0 h 1 m 10,0 h 1 m 21,0 h 1 m 3,0 h 1 M 0,38 h 1 m 3,0 h 1 m 20,0 h 1 m 12,0 h 1 m 20,0 h 1 m 3,0 h 1 M 0,39 h 1 m 3,0 h 1 m 19,0 h 1 m 6,0 h 2 m 6,0 h 1 m 19,0 h 1 m 3,0 h 1 M 0,40 h 1 m 3,0 h 1 m 18,0 h 1 m 7,0 h 2 m 7,0 h 1 m 18,0 h 1 m 3,0 h 1 M 0,41 h 1 m 3,0 h 1 m 17,0 h 1 m 18,0 h 1 m 17,0 h 1 m 3,0 h 1 M 0,42 h 1 m 3,0 h 1 m 16,0 h 1 m 20,0 h 1 m 16,0 h 1 m 3,0 h 1 M 0,43 h 1 m 3,0 h 1 m 15,0 h 1 m 22,0 h 1 m 15,0 h 1 m 3,0 h 1 M 0,44 h 1 m 3,0 h 1 m 14,0 h 1 m 24,0 h 1 m 14,0 h 1 m 3,0 h 1 M 0,45 h 1 m 3,0 h 1 m 13,0 h 1 m 26,0 h 1 m 13,0 h 1 m 3,0 h 1 M 0,46 h 1 m 3,0 h 1 m 12,0 h 1 m 28,0 h 1 m 12,0 h 1 m 3,0 h 1 M 0,47 h 1 m 3,0 h 1 m 11,0 h 1 m 30,0 h 1 m 11,0 h 1 m 3,0 h 1 M 0,48 h 1 m 3,0 h 1 m 10,0 h 1 m 32,0 h 1 m 10,0 h 1 m 3,0 h 1 M 0,49 h 1 m 3,0 h 1 m 9,0 h 1 m 34,0 h 1 m 9,0 h 1 m 3,0 h 1 M 0,50 h 1 m 3,0 h 1 m 8,0 h 1 m 36,0 h 1 m 8,0 h 1 m 3,0 h 1 M 0,51 h 1 m 3,0 h 1 m 7,0 h 1 m 38,0 h 1 m 7,0 h 1 m 3,0 h 1 M 0,52 h 1 m 3,0 h 1 m 6,0 h 1 m 40,0 h 1 m 6,0 h 1 m 3,0 h 1 M 0,53 h 1 m 3,0 h 1 m 5,0 h 1 m 42,0 h 1 m 5,0 h 1 m 3,0 h 1 M 0,54 h 1 m 3,0 h 1 m 4,0 h 1 m 44,0 h 1 m 4,0 h 1 m 3,0 h 1 M 0,55 h 1 m 3,0 h 1 m 3,0 h 1 m 46,0 h 1 m 3,0 h 1 m 3,0 h 1 M 0,56 h 1 m 3,0 h 1 m 2,0 h 1 m 48,0 h 1 m 2,0 h 1 m 3,0 h 1 M 0,57 h 1 m 3,0 h 1 m 1,0 h 1 m 50,0 h 1 m 1,0 h 1 m 3,0 h 1 M 0,58 h 1 m 3,0 h 2 m 52,0 h 2 m 3,0 h 1 M 0,59 h 1 m 3,0 h 56 m 3,0 h 1 M 0,60 h 1 m 2,0 h 1 m 56,0 h 1 m 2,0 h 1 M 0,61 h 1 m 1,0 h 1 m 58,0 h 1 m 1,0 h 1 M 0,62 h 2 m 60,0 h 2 M 0,63 h 64"
         id="path1172" />
      <path
         stroke="#ffffff"
         d="M 2,1 H 62 M 1,2 h 1 m 1,0 h 58 m 1,0 h 1 M 1,3 h 2 m 1,0 h 56 m 1,0 h 2 M 1,4 h 3 m 56,0 h 3 M 1,5 h 3 m 2,0 h 52 m 2,0 h 3 M 1,6 h 3 m 1,0 h 1 m 1,0 h 50 m 1,0 h 1 m 1,0 h 3 M 1,7 h 3 m 1,0 h 2 m 1,0 h 48 m 1,0 h 2 m 1,0 h 3 M 1,8 h 3 m 1,0 h 3 m 1,0 h 46 m 1,0 h 3 m 1,0 h 3 M 1,9 h 3 m 1,0 h 4 m 1,0 h 44 m 1,0 h 4 m 1,0 h 3 M 1,10 h 3 m 1,0 h 5 m 1,0 h 42 m 1,0 h 5 m 1,0 h 3 M 1,11 h 3 m 1,0 h 6 m 1,0 h 40 m 1,0 h 6 m 1,0 h 3 M 1,12 h 3 m 1,0 h 7 m 1,0 h 38 m 1,0 h 7 m 1,0 h 3 M 1,13 h 3 m 1,0 h 8 m 1,0 h 36 m 1,0 h 8 m 1,0 h 3 M 1,14 h 3 m 1,0 h 9 m 1,0 h 34 m 1,0 h 9 m 1,0 h 3 M 1,15 h 3 m 1,0 h 10 m 1,0 h 32 m 1,0 h 10 m 1,0 h 3 M 1,16 h 3 m 1,0 h 11 m 1,0 h 30 m 1,0 h 11 m 1,0 h 3 M 1,17 h 3 m 1,0 h 12 m 1,0 h 28 m 1,0 h 12 m 1,0 h 3 M 1,18 h 3 m 1,0 h 13 m 1,0 h 26 m 1,0 h 13 m 1,0 h 3 M 1,19 h 3 m 1,0 h 14 m 1,0 h 24 m 1,0 h 14 m 1,0 h 3 M 1,20 h 3 m 1,0 h 15 m 1,0 h 22 m 1,0 h 15 m 1,0 h 3 M 1,21 h 3 m 1,0 h 16 m 1,0 h 20 m 1,0 h 16 m 1,0 h 3 M 1,22 h 3 m 1,0 h 17 m 1,0 h 18 m 1,0 h 17 m 1,0 h 3 M 1,23 h 3 m 1,0 h 18 m 1,0 h 16 m 1,0 h 18 m 1,0 h 3 M 1,24 h 3 m 1,0 h 19 m 1,0 h 14 m 1,0 h 19 m 1,0 h 3 M 1,25 h 3 m 1,0 h 20 m 1,0 h 12 m 1,0 h 20 m 1,0 h 3 M 1,26 h 3 m 1,0 h 21 m 1,0 h 10 m 1,0 h 21 m 1,0 h 3 M 1,27 h 3 m 1,0 h 22 m 1,0 h 8 m 1,0 h 22 m 1,0 h 3 M 1,28 h 3 m 1,0 h 23 m 1,0 h 6 m 1,0 h 23 m 1,0 h 3 M 1,29 h 3 m 1,0 h 16 m 6,0 h 2 m 1,0 h 4 m 1,0 h 24 m 1,0 h 3 M 1,30 h 3 m 1,0 h 16 m 1,0 h 4 m 1,0 h 3 m 1,0 h 2 m 1,0 h 25 m 1,0 h 3 M 1,31 h 3 m 1,0 h 16 m 1,0 h 1 m 2,0 h 1 m 1,0 h 4 m 2,0 h 26 m 1,0 h 3 M 1,32 h 3 m 1,0 h 16 m 1,0 h 1 m 2,0 h 1 m 1,0 h 4 m 2,0 h 26 m 1,0 h 3 M 1,33 h 3 m 1,0 h 16 m 1,0 h 4 m 1,0 h 3 m 1,0 h 2 m 1,0 h 25 m 1,0 h 3 M 1,34 h 3 m 1,0 h 16 m 6,0 h 2 m 1,0 h 4 m 1,0 h 24 m 1,0 h 3 M 1,35 h 3 m 1,0 h 23 m 1,0 h 6 m 1,0 h 23 m 1,0 h 3 M 1,36 h 3 m 1,0 h 22 m 1,0 h 8 m 1,0 h 22 m 1,0 h 3 M 1,37 h 3 m 1,0 h 21 m 1,0 h 10 m 1,0 h 21 m 1,0 h 3 M 1,38 h 3 m 1,0 h 20 m 1,0 h 12 m 1,0 h 20 m 1,0 h 3 M 1,39 h 3 m 1,0 h 19 m 1,0 h 6 m 2,0 h 6 m 1,0 h 19 m 1,0 h 3 M 1,40 h 3 m 1,0 h 18 m 1,0 h 7 m 2,0 h 7 m 1,0 h 18 m 1,0 h 3 M 1,41 h 3 m 1,0 h 17 m 1,0 h 18 m 1,0 h 17 m 1,0 h 3 M 1,42 h 3 m 1,0 h 16 m 1,0 h 20 m 1,0 h 16 m 1,0 h 3 M 1,43 h 3 m 1,0 h 15 m 1,0 h 22 m 1,0 h 15 m 1,0 h 3 M 1,44 h 3 m 1,0 h 14 m 1,0 h 24 m 1,0 h 14 m 1,0 h 3 M 1,45 h 3 m 1,0 h 13 m 1,0 h 26 m 1,0 h 13 m 1,0 h 3 M 1,46 h 3 m 1,0 h 12 m 1,0 h 28 m 1,0 h 12 m 1,0 h 3 M 1,47 h 3 m 1,0 h 11 m 1,0 h 30 m 1,0 h 11 m 1,0 h 3 M 1,48 h 3 m 1,0 h 10 m 1,0 h 32 m 1,0 h 10 m 1,0 h 3 M 1,49 h 3 m 1,0 h 9 m 1,0 h 34 m 1,0 h 9 m 1,0 h 3 M 1,50 h 3 m 1,0 h 8 m 1,0 h 36 m 1,0 h 8 m 1,0 h 3 M 1,51 h 3 m 1,0 h 7 m 1,0 h 38 m 1,0 h 7 m 1,0 h 3 M 1,52 h 3 m 1,0 h 6 m 1,0 h 40 m 1,0 h 6 m 1,0 h 3 M 1,53 h 3 m 1,0 h 5 m 1,0 h 42 m 1,0 h 5 m 1,0 h 3 M 1,54 h 3 m 1,0 h 4 m 1,0 h 44 m 1,0 h 4 m 1,0 h 3 M 1,55 h 3 m 1,0 h 3 m 1,0 h 46 m 1,0 h 3 m 1,0 h 3 M 1,56 h 3 m 1,0 h 2 m 1,0 h 48 m 1,0 h 2 m 1,0 h 3 M 1,57 h 3 m 1,0 h 1 m 1,0 h 50 m 1,0 h 1 m 1,0 h 3 M 1,58 h 3 m 2,0 h 52 m 2,0 h 3 M 1,59 h 3 m 56,0 h 3 M 1,60 h 2 m 1,0 h 56 m 1,0 h 2 M 1,61 h 1 m 1,0 h 58 m 1,0 h 1 M 2,62 h 60"
         id="path1174" />
    </g>
  </g>
</svg>
